<?xml version="1.0" encoding="utf-8"?>
<!-- Generator: Adobe Illustrator 19.2.1, SVG Export Plug-In . SVG Version: 6.00 Build 0)  -->
<svg version="1.1" xmlns="http://www.w3.org/2000/svg" xmlns:xlink="http://www.w3.org/1999/xlink" x="0px" y="0px"
	 viewBox="0 0 36 36" style="enable-background:new 0 0 36 36;" xml:space="preserve">
<style type="text/css">
	.st0{display:none;}
	.st1{display:inline;fill-rule:evenodd;clip-rule:evenodd;fill:#59C8E3;}
	.st2{display:inline;fill:#FFFFFF;}
	.st3{display:inline;}
	.st4{fill-rule:evenodd;clip-rule:evenodd;fill:#52535A;}
	.st5{fill:none;}
	.st6{fill-rule:evenodd;clip-rule:evenodd;fill:none;}
	.st7{fill:#52535A;}
	.st8{display:inline;fill-rule:evenodd;clip-rule:evenodd;fill:#52535A;}
	.st9{display:inline;fill:#52535A;}
	.st10{fill:#52535A;stroke:#52535A;stroke-width:0.25;stroke-miterlimit:10;}
	.st11{display:inline;fill:#525252;}
	.st12{display:inline;fill-rule:evenodd;clip-rule:evenodd;}
	.st13{fill:#545757;}
	.st14{fill:#FFFFFF;}
	.st15{fill-rule:evenodd;clip-rule:evenodd;}
	.st16{fill:#010101;}
</style>
<g id="Layer_2" class="st0">
	<rect x="-0.3" y="-0.3" class="st1" width="36.5" height="36.5"/>
</g>
<g id="Layer_30" class="st0">
	<rect x="0.1" y="0.1" class="st2" width="35.7" height="35.9"/>
</g>
<g id="icon-mychart" class="st0">
	<g class="st3">
		<path class="st4" d="M5.8,35.9c-1.1,0-2-0.8-2-2V5.5c0-1.2,0.9-2,2-2c1.6,0.1,3.1,0,4.7,0C10.2,4.2,10,5,9.7,5.7
			c0,0.1-0.2,0.1-0.3,0.1l-3.2,0c0,8.6,0,17.1,0,25.6v2.2l22.2,0v-1.7c0-8.7,0-17.4,0-26.1l-3.2,0c-0.2,0-0.3-0.1-0.4-0.3
			c-0.2-0.7-0.6-1.4-0.9-2.1l4.9,0c1.1,0,1.9,0.7,1.9,1.8v28.7c0,1.1-0.8,1.9-1.9,1.8L5.8,35.9z"/>
		<path class="st4" d="M17.2,0.1c0.7,0.3,1.4,0.7,1.8,1.3c0.5,0.7,1.2,1.1,2,1.1c0.8,0,1.4,0.4,1.7,1.1c0.3,0.7,0.6,1.5,0.9,2.2
			c0.2,0.6-0.1,1.1-0.8,1.1c-3.8,0-7.6,0-11.4,0c-0.6,0-0.9-0.4-0.7-1c0.3-0.8,0.6-1.5,0.9-2.3c0.3-0.7,0.9-1.1,1.7-1.1
			c0.9,0,1.6-0.4,2.1-1.1C15.8,0.8,16.6,0.4,17.2,0.1 M18.1,3.2c0-0.5-0.4-0.9-0.8-0.9c-0.5,0-0.8,0.4-0.8,0.8
			c0,0.5,0.4,0.9,0.9,0.9C17.7,4.1,18.1,3.7,18.1,3.2z"/>
		<path class="st4" d="M9.2,12c0-0.6,0-1.1,0-1.7c5.3,0,10.6,0,15.9,0c0,0.5,0,1.1,0,1.7C19.9,12,14.6,12,9.2,12z"/>
		<path class="st4" d="M9.2,16c0-0.6,0-1.1,0-1.7c5.3,0,10.6,0,15.9,0c0,0.5,0,1.1,0,1.7C19.9,16,14.6,16,9.2,16z"/>
		<path class="st4" d="M18.4,22.9c0,0.8,0,1.5,0,2.3c-0.8,0-1.5,0-2.3,0c0-0.7,0-1.5,0-2.2c-0.8,0-1.5,0-2.3,0c0-0.8,0-1.5,0-2.3
			c0.7,0,1.5,0,2.2,0c0-0.8,0-1.5,0-2.3c0.8,0,1.5,0,2.3,0c0,0.7,0,1.5,0,2.2c0.8,0,1.5,0,2.3,0c0,0.8,0,1.5,0,2.3
			C19.9,22.9,19.2,22.9,18.4,22.9z"/>
	</g>
</g>
<g id="icon-billing" class="st0">
	<g id="IlSg0N_2_" class="st3">
		<g>
			<path class="st5" d="M28.7,16.6c0-5.1,0-10.2,0-15.4c0-0.8-0.3-1.1-1.1-1.1c-4.7,0-9.5,0-14.2,0c-0.5,0-0.8,0.1-1.1,0.5
				C9.3,3.4,6.5,6.3,3.7,9.1c-0.3,0.3-0.5,0.7-0.5,1.1c0,7.2,0,14.5,0,21.7c0,0.9,0.3,1.2,1.1,1.2c7.7,0,15.4,0,23.1,0
				c0.9,0,1.2-0.3,1.2-1.2C28.7,26.8,28.7,21.7,28.7,16.6z M29.7,18.1c0,4.8,0,9.7,0,14.5c0,1.1-0.5,1.6-1.6,1.6
				c-7.2,0-14.3,0-21.5,0c-0.1,0-0.3,0-0.4,0c-0.1,0-0.2,0.1-0.2,0.2c-0.2,1,0.2,1.5,1.2,1.5c7,0,13.9,0,20.9,0c2,0,3.3-1.3,3.3-3.3
				c0-9.5,0-19,0-28.5c0-0.9-0.3-1.2-1.2-1.2c-0.5,0-0.5,0-0.5,0.6C29.7,8.3,29.7,13.2,29.7,18.1z"/>
			<path class="st6" d="M27,16.6c0,4.7,0,9.5,0,14.2c0,0.5,0,0.5-0.5,0.5c-7,0-14,0-21.1,0c-0.5,0-0.5,0-0.5-0.5
				c0-6.6,0-13.1,0-19.7c0-0.5,0-0.5,0.5-0.5c2.4,0,4.9,0,7.3,0c0.9,0,1.2-0.3,1.2-1.2c0-2.4,0-4.9,0-7.3c0-0.4,0.1-0.5,0.5-0.5
				c4.1,0,8.1,0,12.2,0c0.5,0,0.5,0,0.5,0.5C27,7.1,27,11.8,27,16.6z M23,9.4C23,9.4,23,9.4,23,9.4c0.3,0,0.6,0,0.9,0
				c0.2,0,0.3-0.1,0.3-0.3c0-0.6,0-1.2,0-1.7c0-0.3-0.1-0.4-0.3-0.3c-0.6,0-1.2,0-1.7,0c-0.3,0-0.4-0.1-0.4-0.3c0-0.6,0-1.2,0-1.7
				c0-0.3-0.1-0.4-0.3-0.4c-0.6,0-1.1,0-1.7,0c-0.3,0-0.4,0.1-0.4,0.4c0,0.6,0,1.1,0,1.7C19.3,6.9,19.2,7,19,7c-0.6,0-1.2,0-1.7,0
				c-0.2,0-0.3,0.1-0.3,0.3c0,0.6,0,1.2,0,1.7c0,0.3,0.1,0.3,0.4,0.3c0.6,0,1.2,0,1.7,0c0.3,0,0.4,0.1,0.3,0.4c0,0.6,0,1.2,0,1.7
				c0,0.3,0.1,0.4,0.3,0.4c0.6,0,1.1,0,1.7,0c0.3,0,0.4-0.1,0.4-0.4c0-0.6,0-1.2,0-1.7c0-0.2,0.1-0.3,0.3-0.3
				C22.4,9.4,22.7,9.4,23,9.4z M20.4,15.8c-1.1,0-11.6,0-12.7,0c-0.3,0-0.4,0.1-0.4,0.4c0,0.3,0,0.7,0,1c0,0.2,0.1,0.3,0.3,0.3
				c2.3,0,13.9,0,16.2,0c0.2,0,0.3-0.1,0.3-0.3c0-0.3,0-0.7,0-1c0-0.3-0.1-0.4-0.4-0.4C22.7,15.8,21.5,15.8,20.4,15.8z M20.4,20.8
				c1.1,0,2.3,0,3.4,0c0.3,0,0.4-0.1,0.4-0.4c0-0.3,0-0.6,0-0.9c0-0.3-0.1-0.4-0.4-0.4c-1.7,0-3.3,0-5,0c-0.6,0-10.5,0-11.1,0
				c-0.3,0-0.4,0.1-0.3,0.4c0,0.3,0,0.6,0,0.9c0,0.3,0.1,0.4,0.4,0.4C8.9,20.8,19.3,20.8,20.4,20.8z M20.4,24.2c1.1,0,2.3,0,3.4,0
				c0.3,0,0.4-0.1,0.4-0.4c0-0.3,0-0.6,0-0.9c0-0.3-0.1-0.4-0.4-0.4c-1.7,0-3.3,0-5,0c-0.6,0-10.5,0-11.1,0c-0.3,0-0.4,0.1-0.3,0.3
				c0,0.3,0,0.6,0,0.9c0,0.3,0.1,0.4,0.4,0.4C8.9,24.2,19.3,24.2,20.4,24.2z M20.4,25.8c-1.1,0-11.6,0-12.7,0
				c-0.4,0-0.5,0.1-0.4,0.5c0,0.3,0,0.6,0,0.9c0,0.2,0.1,0.3,0.3,0.3c2.3,0,13.9,0,16.2,0c0.2,0,0.3-0.1,0.3-0.3c0-0.3,0-0.7,0-1
				c0-0.3-0.1-0.4-0.4-0.4C22.7,25.8,21.6,25.8,20.4,25.8z"/>
			<path class="st6" d="M12.2,3.2c0,0,0,0.1,0,0.3c0,1.7,0,3.4,0,5.1c0,0.5,0,0.5-0.5,0.5C10,9,8.3,9,6.6,9C6.5,9,6.4,9,6.4,9
				C8.3,7.1,10.2,5.2,12.2,3.2z"/>
			<g>
				<path class="st4" d="M28.7,16.6c0,5.1,0,10.2,0,15.3c0,0.9-0.3,1.2-1.2,1.2c-7.7,0-15.4,0-23.1,0c-0.9,0-1.1-0.3-1.1-1.2
					c0-7.2,0-14.5,0-21.7c0-0.5,0.1-0.8,0.5-1.1c2.8-2.8,5.7-5.7,8.5-8.5c0.3-0.3,0.7-0.5,1.1-0.5c4.7,0,9.5,0,14.2,0
					c0.8,0,1.1,0.3,1.1,1.1C28.7,6.4,28.7,11.5,28.7,16.6z M27,16.6c0-4.8,0-9.6,0-14.4c0-0.5,0-0.5-0.5-0.5c-4.1,0-8.1,0-12.2,0
					c-0.4,0-0.5,0.1-0.5,0.5c0,2.4,0,4.9,0,7.3c0,0.9-0.3,1.2-1.2,1.2c-2.4,0-4.9,0-7.3,0c-0.5,0-0.5,0-0.5,0.5c0,6.6,0,13.1,0,19.7
					c0,0.5,0,0.5,0.5,0.5c7,0,14,0,21.1,0c0.5,0,0.5,0,0.5-0.5C27,26.1,27,21.4,27,16.6z M12.2,3.2C10.2,5.2,8.3,7.1,6.4,9
					c0,0,0.1,0,0.3,0c1.7,0,3.4,0,5.1,0c0.5,0,0.5,0,0.5-0.5c0-1.7,0-3.4,0-5.1C12.1,3.4,12.2,3.3,12.2,3.2z"/>
				<path class="st4" d="M29.7,18.1c0-4.9,0-9.7,0-14.6c0-0.6,0-0.6,0.5-0.6c0.9,0,1.2,0.3,1.2,1.2c0,9.5,0,19,0,28.5
					c0,2-1.3,3.3-3.3,3.3c-7,0-13.9,0-20.9,0c-1,0-1.4-0.6-1.2-1.5c0-0.1,0.1-0.2,0.2-0.2c0.1,0,0.3,0,0.4,0c7.2,0,14.3,0,21.5,0
					c1.1,0,1.6-0.5,1.6-1.6C29.7,27.7,29.7,22.9,29.7,18.1z"/>
				<path class="st4" d="M23,9.4c-0.3,0-0.6,0-0.9,0c-0.2,0-0.3,0.1-0.3,0.3c0,0.6,0,1.2,0,1.7c0,0.3-0.1,0.4-0.4,0.4
					c-0.6,0-1.1,0-1.7,0c-0.3,0-0.3-0.1-0.3-0.4c0-0.6,0-1.2,0-1.7c0-0.3-0.1-0.4-0.3-0.4c-0.6,0-1.2,0-1.7,0
					c-0.3,0-0.4-0.1-0.4-0.3c0-0.6,0-1.2,0-1.7C16.9,7.1,17,7,17.2,7c0.6,0,1.2,0,1.7,0c0.3,0,0.4-0.1,0.4-0.4c0-0.6,0-1.1,0-1.7
					c0-0.3,0.1-0.4,0.4-0.4c0.6,0,1.1,0,1.7,0c0.3,0,0.3,0.1,0.3,0.4c0,0.6,0,1.2,0,1.7c0,0.3,0.1,0.4,0.4,0.3c0.6,0,1.2,0,1.7,0
					c0.3,0,0.4,0.1,0.3,0.3c0,0.6,0,1.2,0,1.7c0,0.2-0.1,0.3-0.3,0.3C23.6,9.4,23.3,9.4,23,9.4C23,9.4,23,9.4,23,9.4z"/>
				<path class="st4" d="M20.4,15.8c1.1,0,2.3,0,3.4,0c0.3,0,0.4,0.1,0.4,0.4c0,0.3,0,0.7,0,1c0,0.2-0.1,0.3-0.3,0.3
					c-2.3,0-13.9,0-16.2,0c-0.2,0-0.3-0.1-0.3-0.3c0-0.3,0-0.7,0-1c0-0.3,0.1-0.4,0.4-0.4C8.8,15.8,19.3,15.8,20.4,15.8z"/>
				<path class="st4" d="M20.4,20.8c-1.1,0-11.6,0-12.7,0c-0.3,0-0.4-0.1-0.4-0.4c0-0.3,0-0.6,0-0.9c0-0.3,0.1-0.4,0.3-0.4
					c0.6,0,10.5,0,11.1,0c1.7,0,3.3,0,5,0c0.3,0,0.5,0.1,0.4,0.4c0,0.3,0,0.6,0,0.9c0,0.3-0.1,0.4-0.4,0.4
					C22.7,20.8,21.5,20.8,20.4,20.8z"/>
				<path class="st4" d="M20.4,24.2c-1.1,0-11.6,0-12.7,0c-0.3,0-0.4-0.1-0.4-0.4c0-0.3,0-0.6,0-0.9c0-0.3,0.1-0.4,0.3-0.3
					c0.6,0,10.5,0,11.1,0c1.7,0,3.3,0,5,0c0.3,0,0.5,0.1,0.4,0.4c0,0.3,0,0.6,0,0.9c0,0.3-0.1,0.4-0.4,0.4
					C22.7,24.2,21.5,24.2,20.4,24.2z"/>
				<path class="st4" d="M20.4,25.8c1.1,0,2.2,0,3.3,0c0.3,0,0.4,0.1,0.4,0.4c0,0.3,0,0.7,0,1c0,0.2-0.1,0.3-0.3,0.3
					c-2.3,0-13.9,0-16.2,0c-0.2,0-0.3-0.1-0.3-0.3c0-0.3,0-0.6,0-0.9c0-0.3,0.1-0.5,0.4-0.5C8.9,25.8,19.3,25.8,20.4,25.8z"/>
			</g>
		</g>
	</g>
</g>
<g id="icon-parking" class="st0">
	<g id="tAWlPA_1_" class="st3">
		<g>
			<path class="st7" d="M0.1,27.2c0-3.4,0-6.7,0-10.1c0,0,0-0.1,0-0.1c0.1-0.9,0.4-1.6,1-2.3c0.5-0.6,1.2-1.1,2-1.2
				c0.1,0,0.2-0.1,0.2-0.2c0.9-2.5,1.9-4.9,2.9-7.4c0.3-0.8,0.8-1.5,1.5-2c0.7-0.5,1.5-0.7,2.3-0.7c1.6,0,3.2,0,4.8,0
				c3.6,0,7.2,0,10.8,0c0.6,0,1.2,0.1,1.8,0.4c1,0.5,1.7,1.3,2.1,2.3c0.9,2.4,1.9,4.8,2.8,7.2c0.1,0.2,0.2,0.4,0.5,0.4
				c1.3,0.4,2.2,1.3,2.7,2.6c0.1,0.3,0.2,0.7,0.3,1.1c0,3.3,0,6.7,0,10c-0.9,0-1.9,0-2.9,0c0,0.1,0,0.1,0,0.2c0,0.9,0,1.9,0,2.8
				c0,0.2,0,0.5-0.1,0.7C32.7,32,32.1,32.7,31,33c-1.1,0.3-2,0-2.8-0.8c-0.5-0.5-0.6-1.2-0.7-1.9c0-1,0-1.9,0-2.9c0-0.1,0-0.1,0-0.2
				c-6.4,0-12.8,0-19.3,0c0,0.1,0,0.1,0,0.2c0,1,0,1.9,0,2.9c0,0.3,0,0.6-0.1,0.8c-0.3,1-0.9,1.7-2,2c-1.1,0.2-2-0.1-2.7-0.9
				C3.2,31.6,3,31,3,30.4c0-1,0-2,0-3c0-0.1,0-0.1,0-0.2C2,27.2,1.1,27.2,0.1,27.2z M29.6,13.4c0-0.1,0-0.1-0.1-0.2
				c-0.5-1.3-1-2.6-1.4-3.8c-0.3-0.8-0.6-1.6-0.9-2.4C26.9,6.3,26.4,6,25.6,6c-2,0-4.1,0-6.1,0c-3.1,0-6.1,0-9.2,0
				c-0.7,0-1.2,0.3-1.5,1C8.7,7.1,8.7,7.3,8.6,7.5c-0.7,1.9-1.4,3.8-2.1,5.7c0,0,0,0.1-0.1,0.1C14.2,13.4,21.9,13.4,29.6,13.4z
				 M30.2,21.4c1.4,0,2.5-1.1,2.5-2.5c0-1.4-1.1-2.5-2.5-2.5c-1.4,0-2.5,1.1-2.5,2.5C27.8,20.3,28.9,21.4,30.2,21.4z M8.2,18.9
				c0-0.2,0-0.3-0.1-0.5c-0.3-1.6-2-2.5-3.5-1.8c-1,0.5-1.5,1.6-1.4,2.7c0.2,1.4,1.5,2.3,2.8,2.1C7.4,21.2,8.2,20.1,8.2,18.9z"/>
		</g>
	</g>
</g>
<g id="icon-phone1" class="st0">
	<g class="st3">
		<path class="st4" d="M28.4,2.4c0,11,0,20.4,0,31.4c0,0.7-0.2,1.3-0.7,1.7c-0.3,0.3-0.7,0.4-1.2,0.4c-5.4,0-10.8,0-16.2,0
			c-1,0-1.8-0.8-1.9-1.8c0-0.1,0-0.2,0-0.3c0-11,0-20.3,0-31.3l0-0.1c0-0.1,0-0.2,0-0.3c0.1-1,0.9-1.8,1.9-1.8c5.4,0,10.8,0,16.2,0
			c0.4,0,0.8,0.2,1.2,0.4c0.6,0.4,0.7,1,0.7,1.7L28.4,2.4z M27.1,18.7c0-4.2,0-8.4,0-12.5c0-0.3-0.1-0.4-0.4-0.4
			c-5.6,0-11.1,0-16.7,0c-0.3,0-0.4,0.1-0.4,0.4c0,8.4,0,15,0,23.4c0,0.3,0.1,0.4,0.4,0.4c5.6,0,11.1,0,16.7,0
			c0.3,0,0.4-0.1,0.4-0.4C27.1,25.3,27.1,22.9,27.1,18.7z M18.4,34.4c0.8,0,1.5-0.7,1.5-1.5c0-0.8-0.7-1.5-1.5-1.5
			c-0.8,0-1.5,0.7-1.5,1.5C16.9,33.7,17.5,34.4,18.4,34.4z M15.6,3.5c1.9,0,3.8,0,5.6,0c0-0.1,0-0.2,0-0.3c-1.9,0-3.7,0-5.6,0
			C15.6,3.3,15.6,3.4,15.6,3.5z"/>
		<path class="st7" d="M16,11.3v1.5h-1.3c-0.4,0-0.6-0.3-0.6-0.6V9.3c0-0.4,0.3-0.6,0.6-0.6h2.8c0.4,0,0.6,0.3,0.6,0.6v1.3h-1.5
			C16.3,10.6,16,10.9,16,11.3 M20.9,11.3v1.5h1.3c0.4,0,0.6-0.3,0.6-0.6V9.3c0-0.4-0.3-0.6-0.6-0.6h-2.8c-0.4,0-0.6,0.3-0.6,0.6v1.3
			h1.5C20.6,10.6,20.9,10.9,20.9,11.3"/>
		<path class="st7" d="M20.9,14.8v-1.5h1.3c0.4,0,0.6,0.3,0.6,0.6v2.8c0,0.4-0.3,0.6-0.6,0.6h-2.8c-0.4,0-0.6-0.3-0.6-0.6v-1.3h1.5
			C20.6,15.4,20.9,15.2,20.9,14.8 M16,14.8v-1.5h-1.3c-0.4,0-0.6,0.3-0.6,0.6v2.8c0,0.4,0.3,0.6,0.6,0.6h2.8c0.4,0,0.6-0.3,0.6-0.6
			v-1.3h-1.5C16.3,15.4,16,15.2,16,14.8"/>
	</g>
</g>
<g id="icon-phone2" class="st0">
	<g class="st3">
		<g>
			<path class="st4" d="M18.9,9.2c1.3,0,2.6,0,3.9,0c0.3,0,0.5,0.1,0.5,0.5c0,0.4,0,0.8,0,1.1c0,0.3-0.1,0.4-0.4,0.4
				c-2.7,0-8.1,0-10.8,0c-0.3,0-0.4-0.1-0.4-0.4c0-0.4,0-0.8,0-1.2c0-0.3,0.1-0.4,0.4-0.4C13.6,9.2,17.6,9.2,18.9,9.2z"/>
			<path class="st4" d="M18.9,15.1c-1.3,0-5.3,0-6.6,0c-0.4,0-0.5-0.1-0.5-0.5c0-0.4,0-0.7,0-1.1c0-0.3,0.1-0.4,0.4-0.4
				c0.7,0,4.1,0,4.8,0c2,0,3.9,0,5.9,0c0.4,0,0.5,0.1,0.5,0.5c0,0.3,0,0.7,0,1c0,0.4-0.1,0.5-0.5,0.5C21.6,15.1,20.3,15.1,18.9,15.1
				z"/>
			<path class="st4" d="M18.9,19c-1.3,0-5.3,0-6.6,0c-0.4,0-0.5-0.1-0.5-0.5c0-0.4,0-0.7,0-1.1c0-0.3,0.1-0.4,0.4-0.4
				c0.7,0,4.1,0,4.8,0c2,0,3.9,0,5.9,0c0.4,0,0.5,0.1,0.5,0.5c0,0.3,0,0.7,0,1c0,0.4-0.1,0.5-0.5,0.5C21.6,19,20.3,19,18.9,19z"/>
			<path class="st4" d="M19,21c1.3,0,2.6,0,3.9,0c0.3,0,0.5,0.1,0.5,0.5c0,0.4,0,0.8,0,1.1c0,0.3-0.1,0.4-0.4,0.4
				c-2.7,0-8.1,0-10.8,0c-0.3,0-0.4-0.1-0.4-0.4c0-0.4,0-0.7,0-1.1c0-0.4,0.1-0.5,0.5-0.5C13.7,21,17.7,21,19,21z"/>
		</g>
		<path class="st4" d="M27.2,2.3c0,10.5,0,21.1,0,31.6c0,0.6-0.2,1.2-0.7,1.6c-0.3,0.3-0.7,0.4-1.1,0.4c-5.2,0-10.3,0-15.5,0
			c-1,0-1.8-0.8-1.8-1.8c0-0.1,0-0.2,0-0.3c0-10.5,0-21,0-31.6l0-0.1c0-0.1,0-0.2,0-0.3c0.1-1,0.8-1.8,1.8-1.8c5.2,0,10.3,0,15.5,0
			c0.4,0,0.8,0.2,1.1,0.4c0.5,0.4,0.7,1,0.7,1.6L27.2,2.3z M26,17.8c0-4,0-8,0-12c0-0.3-0.1-0.3-0.3-0.3c-5.3,0-10.6,0-16,0
			c-0.3,0-0.3,0.1-0.3,0.4c0,8,0,16,0,23.9c0,0.3,0.1,0.3,0.3,0.3c5.3,0,10.6,0,16,0c0.3,0,0.3-0.1,0.3-0.4C26,25.8,26,21.8,26,17.8
			z M17.7,34.4c0.8,0,1.4-0.6,1.4-1.4c0-0.8-0.6-1.4-1.4-1.4c-0.8,0-1.4,0.6-1.4,1.4C16.2,33.8,16.9,34.4,17.7,34.4z M15,3.4
			c1.8,0,3.6,0,5.4,0c0-0.1,0-0.2,0-0.3c-1.8,0-3.6,0-5.4,0C15,3.1,15,3.2,15,3.4z"/>
	</g>
</g>
<g id="icon-phone3" class="st0">
	<g class="st3">
		<path class="st4" d="M28.1,2.3c0,10.5,0,21.1,0,31.6c0,0.6-0.2,1.2-0.7,1.6c-0.3,0.3-0.7,0.4-1.1,0.4c-5.2,0-10.3,0-15.5,0
			c-1,0-1.8-0.8-1.8-1.8c0-0.1,0-0.2,0-0.3c0-10.5,0-21,0-31.6l0-0.1C9,2.1,9,2,9,1.9c0.1-1,0.8-1.8,1.8-1.8c5.2,0,10.3,0,15.5,0
			c0.4,0,0.8,0.2,1.1,0.4c0.5,0.4,0.7,1,0.7,1.6L28.1,2.3z M26.9,17.9c0-4,0-8,0-12c0-0.3-0.1-0.3-0.3-0.3c-5.3,0-10.6,0-16,0
			c-0.3,0-0.3,0.1-0.3,0.4c0,8,0,16,0,23.9c0,0.3,0.1,0.3,0.3,0.3c5.3,0,10.6,0,16,0c0.3,0,0.3-0.1,0.3-0.4
			C26.9,25.9,26.9,21.9,26.9,17.9z M18.6,34.5c0.8,0,1.4-0.6,1.4-1.4c0-0.8-0.6-1.4-1.4-1.4c-0.8,0-1.4,0.6-1.4,1.4
			C17.1,33.9,17.8,34.5,18.6,34.5z M15.9,3.4c1.8,0,3.6,0,5.4,0c0-0.1,0-0.2,0-0.3c-1.8,0-3.6,0-5.4,0C15.9,3.2,15.9,3.3,15.9,3.4z
			 M18.6,14.1c0.8,0,1.4-0.6,1.4-1.4c0-0.8-0.6-1.4-1.4-1.4c-0.8,0-1.4,0.6-1.4,1.4C17.1,13.5,17.8,14.1,18.6,14.1z M18.6,18.4
			c0.8,0,1.4-0.6,1.4-1.4c0-0.8-0.6-1.4-1.4-1.4c-0.8,0-1.4,0.6-1.4,1.4C17.1,17.7,17.8,18.4,18.6,18.4z M18.6,22.6
			c0.8,0,1.4-0.6,1.4-1.4c0-0.8-0.6-1.4-1.4-1.4c-0.8,0-1.4,0.6-1.4,1.4C17.1,22,17.8,22.6,18.6,22.6z M14.3,14.1
			c0.8,0,1.4-0.6,1.4-1.4c0-0.8-0.6-1.4-1.4-1.4c-0.8,0-1.4,0.6-1.4,1.4C12.9,13.5,13.5,14.1,14.3,14.1z M14.3,18.4
			c0.8,0,1.4-0.6,1.4-1.4c0-0.8-0.6-1.4-1.4-1.4c-0.8,0-1.4,0.6-1.4,1.4C12.9,17.7,13.5,18.4,14.3,18.4z M14.3,22.6
			c0.8,0,1.4-0.6,1.4-1.4c0-0.8-0.6-1.4-1.4-1.4c-0.8,0-1.4,0.6-1.4,1.4C12.9,22,13.5,22.6,14.3,22.6z M22.8,14.1
			c0.8,0,1.4-0.6,1.4-1.4c0-0.8-0.6-1.4-1.4-1.4c-0.8,0-1.4,0.6-1.4,1.4C21.4,13.5,22,14.1,22.8,14.1z M22.8,18.4
			c0.8,0,1.4-0.6,1.4-1.4c0-0.8-0.6-1.4-1.4-1.4c-0.8,0-1.4,0.6-1.4,1.4C21.4,17.7,22,18.4,22.8,18.4z M22.8,22.6
			c0.8,0,1.4-0.6,1.4-1.4c0-0.8-0.6-1.4-1.4-1.4c-0.8,0-1.4,0.6-1.4,1.4C21.4,22,22,22.6,22.8,22.6z M18.6,26.9
			c0.8,0,1.4-0.6,1.4-1.4c0-0.8-0.6-1.4-1.4-1.4c-0.8,0-1.4,0.6-1.4,1.4C17.1,26.2,17.8,26.9,18.6,26.9z M14.3,26.9
			c0.8,0,1.4-0.6,1.4-1.4c0-0.8-0.6-1.4-1.4-1.4c-0.8,0-1.4,0.6-1.4,1.4C12.9,26.2,13.5,26.9,14.3,26.9z M22.8,26.9
			c0.8,0,1.4-0.6,1.4-1.4c0-0.8-0.6-1.4-1.4-1.4c-0.8,0-1.4,0.6-1.4,1.4C21.4,26.2,22,26.9,22.8,26.9z"/>
	</g>
</g>
<g id="icon-misc" class="st0">
	<g id="VmODoP.tif" class="st3">
		<g>
			<path class="st7" d="M17.8,0.1c1.2,0.8,2.5,1.5,3.7,2.2c3.9,2.3,7.9,4.5,11.8,6.8c0.5,0.3,0.5,0.3,0,0.6
				c-5.1,2.9-10.2,5.9-15.2,8.8c-0.3,0.2-0.5,0.2-0.8,0C12.2,15.6,7.1,12.7,2,9.7C1.5,9.4,1.5,9.4,2,9.1c5.1-2.9,10.1-5.8,15.2-8.8
				c0.1-0.1,0.3-0.2,0.4-0.3C17.7,0.1,17.7,0.1,17.8,0.1z"/>
			<path class="st7" d="M1.5,13.2c0.2-0.1,0.3,0.1,0.5,0.2c4.4,2.5,8.8,5.1,13.2,7.6c0.4,0.2,0.5,0.4,0.5,0.8c0,4.5,0,9.1,0,13.6
				c0,0.2,0,0.3,0,0.5c-0.1,0-0.1,0-0.2,0c-0.2-0.1-0.3-0.2-0.5-0.3c-4.5-2.6-9-5.2-13.5-7.8C1.5,22.9,1.5,18,1.5,13.2z"/>
			<path class="st7" d="M19.7,35.9c0-0.2,0-0.3,0-0.5c0-4.5,0-9.1,0-13.6c0-0.4,0.1-0.6,0.5-0.8c4.4-2.5,8.8-5.1,13.2-7.6
				c0.2-0.1,0.3-0.2,0.5-0.2c0,4.9,0,9.7,0,14.6c-3.2,1.8-6.3,3.7-9.5,5.5c-1.5,0.9-3,1.7-4.5,2.6C19.8,35.9,19.8,35.9,19.7,35.9z"
				/>
		</g>
	</g>
</g>
<g id="icon-for-medical-professionals" class="st0">
	<g id="JMlfrU_1_" class="st3">
		<g>
			<path class="st4" d="M0.2,5.1c0.4-1.6,1.7-2.5,3-3.3c0.2-0.1,0.3-0.2,0.4-0.4C4.4,0.2,6-0.1,7.1,0.7c1.1,0.8,1.4,2.4,0.6,3.5
				C6.9,5.3,5.3,5.6,4.2,4.7c-0.2-0.1-0.3-0.2-0.4,0c0,0-0.1,0-0.1,0.1C3.1,5.2,2.9,5.7,3.1,6.4c0.5,2.4,1.1,4.8,2,7.1
				c0.8,2,1.7,3.9,3.1,5.5c0.5,0.6,1.1,1,1.8,1.3c1.2,0.5,2.4,0.2,3.4-0.5c1.2-0.9,2-2.2,2.7-3.5c1.5-2.9,2.5-6,3.1-9.3
				c0.1-0.4,0.1-0.8,0.2-1.2c0.1-0.3,0-0.5-0.2-0.7C19.1,5.1,19.1,5,19,5c-0.5-0.4-0.5-0.4-1-0.1c-0.9,0.5-1.8,0.5-2.7-0.1
				c-0.9-0.6-1.2-1.5-1-2.5c0.2-1,0.9-1.7,1.9-1.9c1-0.2,2,0.2,2.6,1.1c0.1,0.1,0.2,0.3,0.4,0.4c0.6,0.5,1.3,0.9,1.9,1.4
				c1,0.9,1.3,2,1.1,3.3c-0.6,3.3-1.5,6.6-2.9,9.7c-0.9,2-1.9,3.8-3.6,5.3c-0.4,0.4-1,0.7-1.4,1.1c-0.1,0.1-0.3,0.3-0.3,0.4
				c-0.2,0.9-0.6,1.8-1.1,2.5c-0.1,0.1-0.1,0.3-0.1,0.4c0.2,1.7,0.8,3.4,2,4.7c1,1.2,2.4,1.9,3.9,2.2c2.2,0.4,4.4,0.3,6.5-0.6
				c2.1-0.9,3.2-2.6,3.8-4.7c0-0.1,0-0.1,0-0.1c-0.7-0.4-1.4-0.8-2-1.3c-1.9-1.6-2.4-4.2-1.4-6.4c1-2.3,3.4-3.5,5.8-3.2
				c2.3,0.3,4.2,2.2,4.6,4.6c0,0.1,0,0.1,0.1,0.2c0,0.4,0,0.8,0,1.3c0,0.1-0.1,0.1-0.1,0.2c-0.4,2.2-1.7,3.7-3.9,4.4
				c-0.3,0.1-0.3,0.2-0.4,0.4c-0.3,1.6-1,3-2,4.3c-1.6,2-3.8,3.1-6.3,3.5c-0.5,0.1-0.9,0.1-1.4,0.2c-0.7,0-1.4,0-2.2,0
				c-0.5-0.1-1-0.1-1.4-0.2c-2.5-0.5-4.7-1.6-6.2-3.7c-1.2-1.6-1.8-3.5-2.1-5.4c0-0.2,0-0.4-0.2-0.6c-0.7-0.9-1.1-1.8-1.4-2.9
				c0-0.1-0.1-0.2-0.2-0.3c-1.6-0.9-2.7-2.2-3.7-3.7c-2-3.2-3.1-6.7-3.9-10.4C0.5,7.7,0.4,6.8,0.2,6C0.2,5.7,0.2,5.4,0.2,5.1z
				 M30.5,24.7c1.5,0,2.8-1.2,2.8-2.7c0-1.5-1.2-2.7-2.7-2.8c-1.5,0-2.8,1.2-2.8,2.7C27.7,23.5,28.9,24.7,30.5,24.7z"/>
			<path class="st4" d="M29.1,22c0-0.8,0.6-1.4,1.4-1.4c0.7,0,1.3,0.6,1.4,1.4c0,0.7-0.6,1.4-1.4,1.4C29.7,23.4,29.1,22.7,29.1,22z"
				/>
		</g>
	</g>
</g>
<g id="icon-diagnostics-testing" class="st0">
	<path class="st8" d="M18.1,35.7c-3.9,0-7.8,0-11.7,0c-2,0-3.7-0.7-4.7-2.4c-1-1.7-0.4-3.4,0.6-4.9c3.1-4.8,6.2-9.7,9.3-14.5
		c1.6-2.6,0.7-5.4,0.7-8.2c0-0.3-0.3-0.5-0.7-0.6c-0.6-0.1-1.4-0.2-1.4-1c-0.1-1.2-0.3-2.4,0.2-3.6C10.6,0,11.1,0,11.5,0
		c4.3,0,8.6,0,13,0c1,0,1.5,0.4,1.5,1.5c0,0.7,0,1.4,0,2.1c0,0.7-0.2,1.3-1,1.4c-1.1,0-1.3,0.7-1.3,1.6c0,1.6,0,3.2,0,4.8
		c0,1.1,0.5,2,1.1,2.9c2.7,4.2,5.5,8.4,8.3,12.6c0.6,0.9,1.1,1.8,1.5,2.7c1.2,3.3-0.7,6-4.2,6.1C26.2,35.7,22.1,35.7,18.1,35.7z
		 M18,33.3C18,33.3,18,33.3,18,33.3c3.9,0,7.9,0,11.8,0c1.9,0,2.7-1.2,2.1-3c-0.2-0.5-0.4-1-0.7-1.5c-1.5-2.3-3-4.7-4.6-7
		c-3.2-4.7-7-9.1-5.7-15.4C21.2,5.4,20.5,5,19.6,5c-5.4,0-4.4-0.5-4.5,4.1c0,0.5,0,1,0,1.5c0.2,1.6-0.3,3-1.2,4.3
		c-3.1,4.8-6.2,9.6-9.2,14.4c-0.5,0.9-1.3,1.7-0.7,2.8c0.6,1.1,1.7,1.2,2.9,1.2C10.6,33.2,14.3,33.3,18,33.3z"/>
	<path class="st8" d="M17.8,32.2c-3.6,0-7.2,0-10.8,0c-0.6,0-1.4,0.2-1.8-0.5C4.7,31,5.3,30.5,5.6,30c2.2-3.4,4.5-6.8,6.7-10.2
		c0.7-1.1,1.6-1.6,2.8-1.5c1.9,0.1,3.8,0.1,5.7,0c1.3-0.1,2.1,0.5,2.8,1.6c2.2,3.4,4.4,6.8,6.6,10.2c1,1.5,0.7,2.1-1.2,2.2
		C25.3,32.2,21.6,32.2,17.8,32.2C17.8,32.2,17.8,32.2,17.8,32.2z"/>
</g>
<g id="icon-email" class="st0">
	<g id="S4eBHf_1_" class="st3">
		<path class="st7" d="M18,31.6c5.7,0,11.5,0,17.2,0c0.7,0,0.7,0,0.7-0.7c0-8.3,0-16.7,0-25c0-0.7,0-0.7-0.7-0.7
			c-11.4,0-22.9,0-34.3,0c-0.7,0-0.7,0-0.7,0.8c0,8.3,0,16.6,0,24.9c0,0.8,0,0.8,0.8,0.8C6.6,31.6,12.3,31.6,18,31.6z M18,7.5
			c4.3,0,8.5,0,12.8,0c0.1,0,0.3,0,0.4,0c0.2,0,0.4-0.1,0.5,0.1c0.1,0.2-0.1,0.3-0.3,0.4c-3.3,3.1-6.4,6.3-9.6,9.4
			c-0.8,0.8-1.7,1.6-2.5,2.4c-0.7,0.7-1.7,0.7-2.4,0.1c-1.3-1.3-2.6-2.5-3.9-3.8c-2.7-2.7-5.5-5.4-8.2-8C4.6,8,4.5,7.9,4.4,7.8
			C4.3,7.7,4.3,7.5,4.6,7.5c0.1,0,0.3,0,0.4,0C9.3,7.5,13.7,7.5,18,7.5z M18,29.3c-4.4,0-8.7,0-13.1,0c-0.2,0-0.4,0.1-0.5-0.1
			c-0.1-0.2,0.2-0.3,0.3-0.4c2.8-2.8,5.5-5.6,8.3-8.4c0.3-0.3,0.5-0.3,0.8,0c0.7,0.9,1.5,1.6,2.4,2.2c1.2,0.7,2.4,0.7,3.6,0
			c0.9-0.6,1.7-1.3,2.4-2.2c0.3-0.3,0.4-0.3,0.7,0c2.8,2.8,5.6,5.7,8.4,8.5c0.1,0.1,0.3,0.2,0.2,0.3c-0.1,0.1-0.3,0.1-0.4,0.1
			C26.7,29.3,22.4,29.3,18,29.3z M33.2,18.5c0,2.8,0,5.6,0,8.3c0,0.1,0.1,0.4-0.1,0.4c-0.2,0.1-0.3-0.1-0.4-0.2
			c-2.7-2.8-5.5-5.6-8.2-8.4c-0.3-0.3-0.3-0.4,0-0.7c2.8-2.6,5.5-5.5,8.3-8.1C33,9.7,33,9.6,33.2,9.7c0.1,0.1,0.1,0.2,0.1,0.4
			C33.2,12.8,33.2,15.7,33.2,18.5z M2.8,27.2c-0.1-0.2-0.1-0.3-0.1-0.5c0-5.5,0-11,0-16.6c0-0.1,0-0.1,0-0.2c0-0.1,0-0.2,0.1-0.3
			C2.9,9.6,3,9.7,3,9.8c0.8,0.7,1.5,1.5,2.3,2.2c2,2,4,4,6,5.9c0.3,0.3,0.3,0.4,0,0.7c-2,2-4,4-5.9,6c-0.8,0.8-1.5,1.6-2.3,2.3
			C3,27.1,2.9,27.2,2.8,27.2z"/>
	</g>
</g>
<g id="icon-locations" class="st0">
	<g id="jOElvx.tif" class="st3">
		<g>
			<path class="st7" d="M30.6,12.4c0,2.5-0.7,4.8-2.1,6.9c-1.6,2.5-3.5,4.7-5.3,7c-1.4,1.9-2.7,3.9-3.5,6.1c-0.4,1-0.6,2-0.7,3
				c0,0.3-0.2,0.6-0.6,0.6c-0.3,0-0.5-0.2-0.6-0.6c-0.3-2.6-1.3-4.8-2.7-7c-1.4-2.1-3-4-4.6-6c-1-1.3-2-2.6-2.8-4
				C5.2,13.9,5.9,8,9.5,4.1C11.5,2,14,0.7,17,0.3c6-0.7,11.8,3.2,13.3,9.1c0.1,0.4,0.2,0.9,0.3,1.3C30.6,11.3,30.7,11.9,30.6,12.4z
				 M18.4,3.8C14,3.7,9.7,7.2,9.7,12.4c0,5,4.1,8.7,8.7,8.7c4.8,0,8.7-3.9,8.7-8.7C27.1,7.6,23.2,3.8,18.4,3.8z"/>
			<path class="st7" d="M22.1,14.3c-0.4,0-0.9,0-1.3,0c-0.4,0-0.5,0.1-0.5,0.5c0,0.9,0,1.8,0,2.7c0,0.6-0.2,0.9-0.9,0.9
				c-0.7,0-1.4,0-2.1,0c-0.6,0-0.8-0.2-0.9-0.9c0-0.9,0-1.8,0-2.7c0-0.4-0.1-0.5-0.5-0.5c-0.9,0-1.8,0-2.7,0c-0.6,0-0.8-0.2-0.8-0.8
				c0-0.7,0-1.5,0-2.2c0-0.6,0.2-0.8,0.8-0.8c0.9,0,1.8,0,2.7,0c0.4,0,0.5-0.1,0.5-0.5c0-0.9,0-1.7,0-2.6c0-0.7,0.2-0.9,0.9-0.9
				c0.7,0,1.4,0,2.1,0c0.6,0,0.8,0.3,0.8,0.8c0,0.9,0,1.8,0,2.7c0,0.4,0.1,0.5,0.5,0.5c0.9,0,1.7,0,2.6,0c0.7,0,1,0.2,1,1
				c0,0.7,0,1.3,0,2c0,0.6-0.2,0.8-0.9,0.8C23,14.3,22.6,14.3,22.1,14.3C22.1,14.3,22.1,14.3,22.1,14.3z"/>
		</g>
	</g>
</g>
<g id="icon-records" class="st0">
	<g id="_x34_3Geuz_2_" class="st3">
		<g>
			<path class="st7" d="M17.7,36c-4.4,0-8.8,0-13.2,0c-1.5,0-2.1-0.6-2.2-2.1c0-0.6-0.1-1.2-0.1-1.8c0-5.2,0-10.3,0-15.5
				c0-1.9,0.6-2.5,2.5-2.5c4.4,0,8.9,0,13.3,0c1,0,1.7-0.3,2.1-1.3c0.3-0.9,0.9-1.3,1.9-1.2c1.6,0,3.1,0,4.7,0
				c0.9,0,1.5,0.3,1.7,1.1c0.4,1.1,1.2,1.5,2.3,1.4c1.7-0.1,2.3,0.6,2.3,2.3c0,5.7,0,11.5,0,17.2c0,1.6-0.6,2.3-2.3,2.3
				C26.4,36,22,36,17.7,36z M17.7,31.3c3.6,0,6.3-2.8,6.3-6.3c0-3.5-2.9-6.3-6.4-6.3c-3.5,0-6.3,2.8-6.3,6.3
				C11.3,28.6,14.1,31.3,17.7,31.3z"/>
			<path class="st7" d="M4,12.7c-0.4,0.1-0.7-0.1-0.8-0.5c-0.1-0.3-0.3-0.6-0.4-0.9c-0.4-1,0-1.9,0.9-2.3c3.7-1.6,7.4-3.2,11.1-4.8
				c2.6-1.1,5.2-2.3,7.9-3.4c0.4-0.2,0.9-0.4,1.3-0.5c0.9-0.3,1.7,0,2.1,0.9c0.6,1.2,1,2.4,1.6,3.5c0.2,0.4,0,0.5-0.3,0.6
				c-1.1,0.4-1.2,0.4-1.7-0.7c-0.3-0.6-0.5-1.2-0.8-1.9c-0.2-0.6-0.5-0.8-1.1-0.5c-3.2,1.4-6.4,2.8-9.6,4.1c-3,1.3-6,2.6-9,3.9
				c-0.6,0.3-0.8,0.5-0.5,1.2C5.1,12.1,4.8,12.7,4,12.7z"/>
			<path class="st7" d="M31.1,12.7c-0.7,0.2-0.9-0.3-1-0.9c-0.2-1.1-0.5-2.2-0.8-3.3C29.1,8,28.9,8,28.4,8.1c-6.3,1.5-12.7,3-19,4.5
				c-1,0.2-2,0.1-3,0.1c-0.4,0-0.4-0.2-0.3-0.5c0.3-0.7,0.9-0.8,1.5-1c3.6-0.9,7.3-1.7,10.9-2.6c3.2-0.8,6.5-1.5,9.7-2.3
				c1.7-0.4,2.4,0.1,2.7,1.8c0.3,1.3,0.6,2.5,0.9,3.8C32.1,12.7,32,12.7,31.1,12.7z"/>
			<path class="st7" d="M19.9,26.2c-0.3,0-0.5,0-0.8,0c-0.2,0-0.3,0.1-0.3,0.3c0,0.5,0,1.1,0,1.6c0,0.4-0.1,0.5-0.5,0.5
				c-0.4,0-0.9,0-1.3,0c-0.4,0-0.5-0.2-0.5-0.5c0-0.5,0-1.1,0-1.6c0-0.2-0.1-0.3-0.3-0.3c-0.5,0-1.1,0-1.6,0c-0.3,0-0.5-0.1-0.5-0.5
				c0-0.4,0-0.9,0-1.3c0-0.4,0.1-0.5,0.5-0.5c0.5,0,1.1,0,1.6,0c0.2,0,0.3-0.1,0.3-0.3c0-0.5,0-1,0-1.6c0-0.4,0.1-0.6,0.6-0.6
				c0.4,0,0.9,0,1.3,0c0.3,0,0.5,0.2,0.5,0.5c0,0.5,0,1.1,0,1.6c0,0.2,0.1,0.3,0.3,0.3c0.5,0,1,0,1.6,0c0.5,0,0.6,0.1,0.6,0.6
				c0,0.4,0,0.8,0,1.2c0,0.4-0.1,0.5-0.5,0.5C20.4,26.2,20.1,26.2,19.9,26.2L19.9,26.2z"/>
		</g>
	</g>
</g>
<g id="icon-international" class="st0">
	<path class="st9" d="M18,0.1C8.1,0.1,0.1,8.1,0.1,18c0,9.9,8,17.9,17.9,17.9c9.9,0,17.9-8,17.9-17.9C35.9,8.1,27.9,0.1,18,0.1z
		 M28.4,17.4c0-2.6-0.4-5-1-7.3h5.1c1.2,2.2,1.9,4.6,2,7.3H28.4z M34.5,18.8c-0.1,2.6-0.9,5.1-2.1,7.3h-5.1c0.6-2.2,1-4.7,1.1-7.3
		H34.5z M31.7,8.7H27c-0.4-1.1-0.8-2.1-1.4-3.1c-0.7-1.4-1.6-2.5-2.5-3.4C26.6,3.4,29.6,5.7,31.7,8.7z M25.5,8.7h-6.8V1.5
		C21.5,1.9,24,4.7,25.5,8.7z M17.3,1.5v7.2h-6.8C12,4.7,14.5,1.9,17.3,1.5z M17.3,10.1v7.3H9c0.1-2.6,0.4-5.1,1.1-7.3H17.3z
		 M17.3,18.8V26h-7.2C9.4,23.9,9,21.4,9,18.8H17.3z M17.3,27.4v7c-2.8-0.4-5.2-3.1-6.7-7H17.3z M18.7,34.5v-7h6.7
		C23.9,31.4,21.5,34.1,18.7,34.5z M18.7,26v-7.3H27c-0.1,2.6-0.5,5.1-1.1,7.3H18.7z M18.7,17.4v-7.3H26c0.6,2.2,1,4.6,1.1,7.3H18.7z
		 M12.9,2.3c-0.9,0.9-1.8,2-2.5,3.4c-0.5,0.9-1,2-1.4,3.1H4.3C6.4,5.7,9.4,3.4,12.9,2.3z M1.5,18.8h6.1c0.1,2.6,0.4,5,1.1,7.3H3.6
		C2.4,23.9,1.6,21.4,1.5,18.8z M1.5,17.4c0.1-2.6,0.8-5.1,2-7.3h5.1c-0.6,2.2-1,4.7-1,7.3H1.5z M4.4,27.4h4.7c0.4,1,0.8,2,1.3,2.9
		c0.7,1.4,1.6,2.5,2.5,3.4C9.4,32.6,6.5,30.4,4.4,27.4z M23.1,33.7c0.9-0.9,1.8-2,2.5-3.4c0.5-0.9,0.9-1.9,1.3-2.9h4.7
		C29.5,30.4,26.6,32.6,23.1,33.7z"/>
</g>
<g id="icon-amenities" class="st0">
	<path class="st9" d="M31,8.1h-1h-2.3c0.3-0.4,0.6-0.9,0.8-1.4c0.3-1,0.6-3-1.5-5c-1.3-1.3-2.5-1.6-3.4-1.6c-2.4,0-4.4,2.1-5.6,4.3
		c-1.2-2.1-3.1-4.3-5.6-4.3c-0.8,0-2.1,0.3-3.4,1.5c-2.1,2.1-1.8,4-1.5,5c0.2,0.5,0.5,1,0.8,1.4H6.2h-1c-1.6,0-3,1.3-3,3v6.1
		c0,1,0.5,1.9,1.3,2.5v13.6c0,1.5,1.2,2.7,2.7,2.7H30c1.5,0,2.7-1.2,2.7-2.7V19.7c0.8-0.5,1.3-1.4,1.3-2.5v-6.1
		C34,9.4,32.6,8.1,31,8.1z M4.7,17.4c-0.1,0-0.2-0.1-0.2-0.2v-6.6c0-0.1,0.1-0.2,0.2-0.2h11.5v7H4.7z M20,10.4h11.5
		c0.1,0,0.2,0.1,0.2,0.2v6.6c0,0.1-0.1,0.2-0.2,0.2H20V10.4z M10,5.1c-0.1-0.2,0-1.3,1.1-1.9C11.4,3,12,2.8,12.3,2.8
		c1.3,0,3.3,3.9,3.5,5.3h-1.2C13.2,7.6,10.4,6.1,10,5.1z M5.3,20.2h10.8v12.9H5.3V20.2z M20,33.1V20.2h10.8v12.9H20z M23.4,2.8
		c0.3,0,0.9,0.6,1.2,0.9c0.8,0.8,0.7,1.7,0.6,1.9c-0.4,1-2.7,2.1-4.1,2.6h-1.2C20.1,5.9,22.6,2.8,23.4,2.8z"/>
</g>
<g id="search" class="st0">
	<g class="st3">
		<path class="st7" d="M25.1,19.6c-0.7,1.1-0.7,1.6,0.3,2.5c2.9,2.6,5.7,5.2,8.6,7.9c0.9,0.8,0.9,2.4,0.1,3.3
			c-0.2,0.2-0.5,0.5-0.7,0.7c-1.8,1.8-2.9,1.8-4.6,0c-2.8-2.8-5.6-5.5-8.3-8.3c-0.7-0.7-1.3-0.9-2.2-0.4 M13.7,22"/>
	</g>
	<path class="st9" d="M13.7,26.6c-7.2,0-13.1-5.9-13.1-13.1c0-7.2,5.9-13.1,13.1-13.1c7.2,0,13.1,5.9,13.1,13.1
		C26.8,20.7,20.9,26.6,13.7,26.6z M13.7,4.3c-5.1,0-9.2,4.1-9.2,9.2c0,5.1,4.1,9.2,9.2,9.2c5.1,0,9.2-4.1,9.2-9.2
		C22.9,8.4,18.8,4.3,13.7,4.3z"/>
</g>
<g id="insurance" class="st0">
	<g class="st3">
		<path class="st7" d="M20.9,16l-3.1,3.1l-1.4-1.4l-1,1l2.4,2.4l4.1-4.1L20.9,16z"/>
		<path class="st7" d="M18.6,11c-2.1,1.8-3.4,1.9-5.6,1.9v7.2c0,2.9,2,3.6,5.6,5.9c3.6-2.3,5.6-3,5.6-5.9v-7.2
			C22.1,12.9,20.7,12.8,18.6,11 M18.6,12.6c1.6,1.1,2.8,1.4,4.4,1.5v6c0,1.9-1.1,2.4-4.4,4.4c-3.3-2-4.4-2.5-4.4-4.4v-6
			C15.8,14,17.1,13.7,18.6,12.6"/>
	</g>
</g>
<g id="lodging" class="st0">
	<g id="g6xAFi_1_" class="st3">
		<g>
			<path class="st7" d="M23.2,35.9c0-2.4,0-4.7,0-7.1c-3.8,0-7.5,0-11.3,0c0,2.4,0,4.7,0,7c-1.8,0-3.6,0.1-5.3,0
				c-1.5-0.1-2.3-1.3-2.3-3.4c0-5.8,0-11.6,0-17.4c0-3.7,0-7.3,0-11c0-2.9,1-3.9,3.8-3.9c6.3,0,12.5,0,18.8,0c2.6,0,3.6,1,3.6,3.5
				c0,9.6,0,19.3,0,28.9c0,2.4-0.9,3.3-3.2,3.3C26,35.9,24.7,35.9,23.2,35.9z M7.6,3.7c0,1.7,0,3.4,0,5.1c1.7,0,3.4,0,5.1,0
				c0-1.7,0-3.4,0-5.1C11,3.7,9.4,3.7,7.6,3.7z M22.1,8.8c1.8,0,3.4,0,5.1,0c0-1.8,0-3.5,0-5.1c-1.8,0-3.4,0-5.1,0
				C22.1,5.4,22.1,7.1,22.1,8.8z M7.6,18.3c0,1.7,0,3.4,0,5.1c1.7,0,3.4,0,5.1,0c0-1.8,0-3.4,0-5.1C11,18.3,9.4,18.3,7.6,18.3z
				 M20.1,23.4c0-1.9,0-3.5,0-5.1c-1.8,0-3.4,0-5.1,0c0,1.8,0,3.4,0,5.1C16.7,23.4,18.4,23.4,20.1,23.4z M22.2,18.2
				c0,1.9,0,3.5,0,5.1c1.8,0,3.4,0,5.1,0c0-1.8,0-3.4,0-5.1C25.5,18.2,23.9,18.2,22.2,18.2z M20.1,3.7c-1.8,0-3.4,0-5.2,0
				c0,1.8,0,3.5,0,5.1c1.8,0,3.4,0,5.2,0C20.1,7.1,20.1,5.4,20.1,3.7z M22.2,11.1c0,1.8,0,3.5,0,5.1c1.8,0,3.4,0,5.1,0
				c0-1.8,0-3.4,0-5.1C25.5,11.1,23.9,11.1,22.2,11.1z M12.7,16.2c0-1.7,0-3.4,0-5c-1.8,0-3.4,0-5.1,0c0,1.7,0,3.3,0,5
				C9.3,16.2,11,16.2,12.7,16.2z M15,11.1c0,1.8,0,3.4,0,5.1c1.7,0,3.4,0,5.1,0c0-1.7,0-3.3,0-5.1C18.4,11.1,16.7,11.1,15,11.1z"/>
		</g>
	</g>
</g>
<g id="express_care" class="st0">
	<g class="st3">
		<path class="st10" d="M12.3,15.5C12.3,15.5,12.3,15.4,12.3,15.5c-0.1-0.2-0.2-0.4-0.3-0.5c-0.1-0.2-0.2-0.3-0.2-0.5
			c0,0,0-0.1-0.1-0.1c0,0,0,0,0,0c0,0,0,0-0.1,0l-2.9,1.7c-0.1,0-0.1,0.1,0,0.2l0.6,1c0,0,0,0,0.1,0.1c0,0,0,0,0,0c0,0,0,0,0.1,0
			L12.3,15.5C12.3,15.6,12.3,15.5,12.3,15.5"/>
		<path class="st10" d="M11.3,13.4C11.3,13.4,11.3,13.3,11.3,13.4c0-0.5,0-0.8,0-1.2c0,0,0,0,0,0c0-0.1-0.1-0.1-0.1-0.1h0H7.9
			c-0.1,0-0.1,0.1-0.1,0.1v1.1c0,0.1,0.1,0.1,0.1,0.1L11.3,13.4C11.3,13.4,11.3,13.4,11.3,13.4"/>
		<path class="st10" d="M17.9,8.4c0.3,0.1,0.6,0.3,0.9,0.5c0,0,0,0,0.1,0c0,0,0,0,0,0C19,9,19,9,19,8.9L20.7,6c0-0.1,0-0.1,0-0.2
			l-1-0.6c0,0,0,0-0.1,0c0,0,0,0,0,0c0,0-0.1,0-0.1,0.1l-1.7,2.9C17.8,8.3,17.8,8.3,17.9,8.4C17.8,8.4,17.9,8.4,17.9,8.4"/>
		<path class="st10" d="M11.3,19.5l1,0.6c0,0,0,0,0.1,0c0,0,0,0,0,0c0,0,0.1,0,0.1-0.1l1.7-2.9c0,0,0-0.1,0-0.1c0,0,0-0.1-0.1-0.1
			c-0.3-0.1-0.6-0.3-0.9-0.5c0,0,0,0-0.1,0c0,0,0,0,0,0c0,0-0.1,0-0.1,0.1l-1.7,2.9C11.2,19.3,11.2,19.4,11.3,19.5"/>
		<path class="st10" d="M19.6,9.8C19.6,9.8,19.6,9.9,19.6,9.8c0.1,0.2,0.2,0.4,0.3,0.5c0.1,0.2,0.2,0.3,0.2,0.5c0,0,0,0.1,0.1,0.1
			c0,0,0,0,0,0c0,0,0,0,0.1,0l2.9-1.7c0,0,0,0,0.1-0.1c0,0,0-0.1,0-0.1l-0.6-1c0,0-0.1-0.1-0.1-0.1c0,0,0,0-0.1,0L19.6,9.8
			C19.6,9.7,19.6,9.8,19.6,9.8"/>
		<path class="st10" d="M20.6,11.9C20.6,11.9,20.6,12,20.6,11.9c0,0.5,0,0.8,0,1.2c0,0,0,0.1,0,0.1c0,0,0.1,0,0.1,0h3.4
			c0.1,0,0.1-0.1,0.1-0.1V12c0-0.1-0.1-0.1-0.1-0.1L20.6,11.9C20.7,11.9,20.6,11.9,20.6,11.9"/>
		<path class="st10" d="M34.9,13c-0.5-0.8-1.4-1.4-2.3-1.4V2.7c0-0.1-0.1-0.1-0.1-0.1H9.1H6.9H0.3c-0.1,0-0.1,0.1-0.1,0.1v19.9
			c0,0.1,0.1,0.1,0.1,0.1h6.7h2.2h8.6c-0.7,2.1-0.8,4.4-0.2,6.6c0.3,0.9,0.6,1.8,1.1,2.6c0.1,0.2,0.3,0.5,0.5,0.7
			c0,0,0.1,0.1,0.1,0.1c0,0,0,0,0.1,0l1-0.6c0,0,0.1,0,0.1-0.1c0,0,0-0.1,0-0.1c-0.2-0.2-0.3-0.5-0.4-0.7c-0.5-0.8-0.8-1.7-1-2.6
			c-0.4-1.7-0.4-3.5,0.1-5.2l2.2,3.8c0,0,0,0,0.1,0.1c0,0,0,0,0,0c0,0,0,0,0.1,0l1-0.6c0.1,0,0.1-0.1,0-0.2l-2.8-4.8l-0.7-1.1
			L14,12.3c-0.2-0.4-0.3-0.8-0.2-1.2c0.1-0.4,0.4-0.7,0.7-0.9C14.8,10,15,10,15.3,10c0.5,0,1.1,0.3,1.3,0.8l5.5,9.6
			c0,0,0.1,0.1,0.1,0.1c0,0,0,0,0.1,0l1-0.6c0,0,0,0,0.1-0.1c0,0,0-0.1,0-0.1c-0.4-0.7-0.2-1.7,0.6-2.1c0.2-0.1,0.5-0.2,0.8-0.2
			c0.5,0,1.1,0.3,1.3,0.8c0,0,0.1,0.1,0.1,0.1c0,0,0,0,0.1,0l1-0.6c0.1,0,0.1-0.1,0-0.2c-0.4-0.7-0.2-1.7,0.6-2.1
			c0.2-0.1,0.5-0.2,0.8-0.2c0.5,0,1.1,0.3,1.3,0.8c0,0,0,0,0.1,0.1c0,0,0,0,0,0c0,0,0,0,0.1,0l1-0.6c0.1,0,0.1-0.1,0-0.2
			c-0.4-0.7-0.2-1.7,0.6-2.1c0.2-0.1,0.5-0.2,0.8-0.2c0.5,0,1.1,0.3,1.3,0.8l1,1.7c0,0,0,0,0.1,0.1c0,0,0,0,0,0c0,0,0,0,0.1,0l1-0.6
			c0.1,0,0.1-0.1,0-0.2L34.9,13z M12.5,10.8c-0.2,0.7-0.1,1.5,0.3,2.2l4.9,8.5H9.1H6.9H1.5V4h5.4h2.2h22.1v7.9
			c-0.1,0-0.2,0.1-0.3,0.1c-0.7,0.4-1.3,1.2-1.4,2c-0.3-0.1-0.7-0.2-1-0.2c-0.5,0-1,0.1-1.4,0.4c-0.7,0.4-1.3,1.2-1.4,2
			c-0.3-0.1-0.7-0.2-1-0.2c-0.5,0-1,0.1-1.4,0.4c-0.5,0.3-0.9,0.7-1.1,1.2l-4.3-7.5c-0.5-0.9-1.5-1.4-2.5-1.4c-0.5,0-1,0.1-1.4,0.4
			C13.2,9.4,12.7,10,12.5,10.8"/>
	</g>
</g>
<g id="nutrition-counseling" class="st0">
	<path class="st9" d="M21.5,10.7c-2,0-3.3,0.5-4.4,1c0-0.2,0.1-0.6,0.2-0.9c0.1-0.4,0.3-1,0.5-1.5c0.2-0.5,0.5-1.1,0.8-1.6
		c0.2-0.2,0.3-0.5,0.5-0.7c0.2-0.2,0.4-0.4,0.6-0.6c0.2-0.2,0.4-0.4,0.6-0.5c0.2-0.1,0.4-0.3,0.6-0.4c0.2-0.1,0.3-0.2,0.5-0.3
		c0.2-0.1,0.3-0.1,0.4-0.2C21.9,5,22,4.9,22,4.9L21.2,3c0,0-0.2,0.1-0.4,0.2c-0.1,0.1-0.3,0.2-0.5,0.3c-0.2,0.1-0.4,0.3-0.6,0.4
		c-0.2,0.2-0.4,0.4-0.7,0.6c-0.2,0.2-0.5,0.4-0.7,0.7c-0.2,0.2-0.4,0.5-0.6,0.8c-0.2,0.3-0.4,0.6-0.5,0.9c-0.3,0.6-0.6,1.3-0.8,1.9
		c-0.2,0.6-0.3,1.2-0.4,1.7c0,0.3-0.1,0.6-0.1,0.8c-0.9-0.3-2-0.6-3.4-0.6c-3.8,0-10,2.5-10,10.2c0,5,5.3,14.8,11.3,14.8
		c1.3,0,2.4-0.1,3.2-0.2c0.8,0.1,1.9,0.2,3.2,0.2c6,0,11.3-9.8,11.3-14.8C31.5,13.2,25.3,10.7,21.5,10.7z M21.2,12.9
		c2.4-0.4,7.9,1.3,7.9,7.6c0,1.8-0.9,5.1-2.4,7.2c0.6-2.2,0.8-4.3,0.8-6C27.4,16.5,24,13.8,21.2,12.9z M9.8,9.3
		c3.7,1.3,5.4-0.1,5.4-0.1s1-2.9-1.9-5.3c-2.8-2.4-6.5-1.3-8.8-3.7C4.4,0.2,4.2,7.4,9.8,9.3z"/>
</g>
<g id="icon-myconsult">
	<path class="st7" d="M30.8,3.9H19c-0.8,0-1.5,0.7-1.5,1.5s0.7,1.5,1.5,1.5h10.3v8.5c0,0.8,0.7,1.5,1.5,1.5s1.5-0.7,1.5-1.5v-10
		C32.2,4.5,31.6,3.9,30.8,3.9z"/>
	<g>
		<path class="st7" d="M5.4,32.1h11.8c0.8,0,1.5-0.7,1.5-1.5s-0.7-1.5-1.5-1.5H6.9v-8.5c0-0.8-0.7-1.5-1.5-1.5S4,19.8,4,20.6v10
			C4,31.5,4.6,32.1,5.4,32.1z"/>
	</g>
	<g>
		<circle class="st7" cx="28.1" cy="22.9" r="4.6"/>
		<path class="st7" d="M28.1,28.6c-4.2,0-7.7,2-7.7,5.6v1.4h15.3v-1.4C35.8,30.7,32.3,28.6,28.1,28.6z M33.3,33.2h-1.4v1.4h-1.4
			v-1.4h-1.4v-1.4h1.4v-1.4h1.4v1.4h1.4V33.2z"/>
	</g>
	<g>
		<circle class="st7" cx="8.1" cy="5" r="4.6"/>
		<path class="st7" d="M8.1,10.7c-4.2,0-7.7,2-7.7,5.6v1.4h15.3v-1.4C15.7,12.7,12.3,10.7,8.1,10.7z M13.3,15.3h-1.4v1.4h-1.4v-1.4
			H9.1v-1.4h1.4v-1.4h1.4v1.4h1.4C13.3,13.9,13.3,15.3,13.3,15.3z"/>
	</g>
</g>
<g id="Layer_32">
</g>
<g id="_x2D_---------" class="st0">
</g>
<g id="colors" class="st0">
	<rect x="-0.3" class="st9" width="1.8" height="1.8"/>
	<rect x="-0.3" y="2" class="st11" width="1.8" height="1.8"/>
</g>
<g id="Layer_1_copy" class="st0">
	<path class="st12" d="M25.2,7.4c1.3,0,2.6,0,3.9,0C30,7.4,30.7,8,30.7,9v19.2c0,1-0.7,1.6-1.6,1.6c-1.3,0-2.6,0-3.9,0l-11.8,0
		c-1.4,0-2.7,0-4.1,0c-0.9,0-1.7-0.7-1.7-1.7v-19c0-1.1,0.8-1.8,1.7-1.7c1.3,0,2.7,0,4.1,0L25.2,7.4z M9.6,9.3c0,7.4,0,9.2,0,16.6
		v1.9l19.1,0v-1.5c0-7.5,0-9.5,0-17l-2.7,0"/>
	<path class="st12" d="M21.4,20.8c0,1.6,0,3,0,4.5c-1.5,0-3,0-4.5,0c0-1.5,0-2.9,0-4.5c-1.5,0-3,0-4.5,0c0-1.6,0-3,0-4.6
		c1.5,0,2.9,0,4.5,0c0-1.5,0-3,0-4.5c1.6,0,3,0,4.6,0c0,1.5,0,2.9,0,4.5c1.5,0,3,0,4.5,0c0,1.6,0,3,0,4.6
		C24.4,20.8,23,20.8,21.4,20.8z"/>
</g>
<g id="Layer_11" class="st0">
	<g class="st3">
		<circle class="st13" cx="18.7" cy="6.3" r="2.3"/>
		<path class="st13" d="M19.6,32.4c0,0.6-0.4,1.1-0.9,1.1l0,0c-0.5,0-0.9-0.5-0.9-1.1V7.8c0-0.6,0.4-1.1,0.9-1.1l0,0
			c0.5,0,0.9,0.5,0.9,1.1V32.4z"/>
		<path class="st13" d="M18.7,22.9c-3.8,0-7.9-1-7.9-3.2c0-2.2,4.1-3.2,7.9-3.2s7.9,1,7.9,3.2C26.6,21.9,22.5,22.9,18.7,22.9
			L18.7,22.9z M18.7,18.2c-4,0-6.1,1.1-6.2,1.5c0.1,0.4,2.2,1.5,6.2,1.5s6.1-1.1,6.2-1.5C24.8,19.3,22.7,18.2,18.7,18.2L18.7,18.2z"
			/>
		<path class="st13" d="M18.7,26.9c-3.1,0-6.4-0.9-6.4-2.8c0-1.9,3.3-2.8,6.4-2.8c3.1,0,6.4,0.9,6.4,2.8
			C25.1,26,21.8,26.9,18.7,26.9L18.7,26.9z M14,24c0.2,0.4,1.8,1.1,4.7,1.1c2.9,0,4.5-0.8,4.7-1.1c-0.2-0.4-1.8-1.1-4.7-1.1
			C15.8,22.9,14.2,23.7,14,24L14,24z"/>
		<path class="st13" d="M23.4,30.9c-0.5,0-0.9-0.4-0.9-0.9c0-1.8-1.7-3.2-3.8-3.2c-2.1,0-3.8,1.4-3.8,3.2c0,0.5-0.4,0.9-0.9,0.9
			c-0.5,0-0.9-0.4-0.9-0.9c0-2.7,2.5-4.9,5.5-4.9c3,0,5.5,2.2,5.5,4.9C24.2,30.5,23.8,30.9,23.4,30.9L23.4,30.9z"/>
		<g>
			<path class="st13" d="M18.7,18.2c-3.5,0-9.4-0.7-9.4-3.2c0-1,0.9-1.8,2.8-2.4l0.5,1.6c-1,0.3-1.4,0.6-1.5,0.7
				c0.4,0.5,3,1.4,7.6,1.4c4.7,0,7.2-1,7.6-1.4c-0.1-0.1-0.5-0.4-1.6-0.7l0.5-1.6c1.9,0.6,2.9,1.4,2.9,2.4
				C28.1,17.6,22.2,18.2,18.7,18.2L18.7,18.2z"/>
			<g>
				<path class="st13" d="M26.4,14.5c-0.4,0.7-1.3,1-2.2,0.6c-0.7-0.3-1-1.4-2-1.7c-1.3-0.4-1.5-0.7-1.4-0.9
					c0.2-0.6,2.1-1.3,4.1-0.6C27.1,12.6,26.7,13.9,26.4,14.5z"/>
				<path class="st13" d="M11,14.5c0.4,0.7,1.3,1,2.2,0.6c0.7-0.3,1-1.4,2-1.7c1.3-0.4,1.5-0.7,1.4-0.9c-0.2-0.6-2.1-1.3-4.1-0.6
					C10.4,12.6,10.7,13.9,11,14.5z"/>
			</g>
		</g>
		<g>
			<path class="st13" d="M18.7,12c-2.6,0-4.7-2.1-4.7-4.7c0-0.4,0.3-0.6,0.6-0.6c0.4,0,0.6,0.3,0.6,0.6c0,1.9,1.5,3.4,3.4,3.4
				c1.9,0,3.4-1.5,3.4-3.4c0-0.4,0.3-0.6,0.6-0.6c0.4,0,0.6,0.3,0.6,0.6C23.4,9.9,21.3,12,18.7,12L18.7,12z"/>
			<path class="st13" d="M4.6,5.8C7.8,5.3,14,4.9,15.1,6.5c0.8,1.2-0.7,3.5-3.1,3.5c-2.1,0-1.3-1.2-1.3-1.2S9.4,9.3,8.3,9.1
				C7,8.9,8.5,8,8.5,8S6.8,8.4,5.8,8C5.1,7.6,6.2,7.2,6.2,7.2S1.4,6.3,4.6,5.8z"/>
			<path class="st13" d="M32.8,5.8c-3.2-0.5-9.4-0.9-10.5,0.6c-0.8,1.2,0.7,3.5,3.1,3.5c2.1,0,1.3-1.2,1.3-1.2s1.3,0.6,2.4,0.4
				C30.4,8.9,28.9,8,28.9,8s1.7,0.4,2.7,0c0.8-0.3-0.4-0.8-0.4-0.8S36,6.3,32.8,5.8z"/>
		</g>
	</g>
</g>
<g id="Layer_8" class="st0">
	<g id="_x33_prULC_1_" class="st3">
		<g>
			<path class="st14" d="M17.2,17.6C17.2,17.6,17.2,17.6,17.2,17.6c-0.1,0.4-0.2,0.8-0.3,1.2c-0.2,0.7-0.4,1.4-0.5,2.1
				c-0.1,0.2-0.2,0.4-0.4,0.5c-0.3,0.1-0.6-0.1-0.7-0.5c-0.4-1.3-0.8-2.5-1.3-3.8c0-0.1,0-0.1-0.1-0.2c0,0.2,0,0.3-0.1,0.4
				c0,0.2,0,0.3,0,0.5c0,0.4-0.2,0.6-0.7,0.6c-0.5,0-1,0-1.6,0c0,0-0.1,0-0.1,0c0,0,0,0,0,0c0.6,0.6,1.2,1.3,1.8,1.9
				c1.1,1.1,2.2,2.1,3.3,3.2c0.1,0.1,0.2,0.2,0.3,0.2c0.4,0.3,0.7,0.2,1.1,0c0.1-0.1,0.2-0.1,0.2-0.2c0.7-0.7,1.3-1.3,2-2
				c1.1-1.1,2.3-2.2,3.2-3.5c0.6-0.8,1.2-1.7,1.3-2.8c0.1-0.6,0.1-1.2-0.1-1.8c-0.2-0.8-0.6-1.5-1.3-2c-0.6-0.4-1.3-0.6-2-0.8
				c-1.3-0.2-2.5,0.1-3.6,1c-0.2,0.1-0.3,0.3-0.5,0.5c-0.2-0.2-0.4-0.4-0.6-0.5c-0.7-0.5-1.4-0.9-2.3-1c-0.9-0.1-1.8,0.1-2.6,0.4
				c-0.8,0.4-1.4,1-1.8,1.9c-0.3,0.8-0.3,1.7-0.2,2.5c0.1,0.5,0.3,1,0.6,1.5c0.1,0.1,0.1,0.1,0.2,0.1c0.6,0,1.2,0,1.8,0
				c0.1,0,0.1,0,0.2,0c0-0.1,0-0.1,0-0.2c0.1-1.1,0.1-2.2,0.2-3.2c0-0.2,0.1-0.4,0.2-0.5c0.3-0.3,0.8-0.1,0.9,0.3
				c0.5,1.6,1.1,3.2,1.6,4.9c0,0.1,0,0.1,0.1,0.2c0-0.1,0-0.2,0.1-0.2c0.3-1.1,0.6-2.3,0.9-3.4c0.1-0.3,0.3-0.5,0.6-0.5
				c0.3,0,0.5,0.2,0.6,0.5c0.1,0.4,0.2,0.7,0.3,1.1c0.1,0.4,0.2,0.8,0.3,1.2c0.2-0.3,0.3-0.6,0.5-0.8c0.2-0.4,0.6-0.4,0.9-0.1
				c0.2,0.1,0.3,0.3,0.5,0.4c0.1,0,0.1,0.1,0.2,0.1c0.3,0,0.7,0,1,0c0.2,0,0.4,0.1,0.5,0.3c0.2,0.4-0.1,0.8-0.6,0.8
				c-0.3,0-0.6,0-0.9,0c-0.4,0-0.7,0-1-0.4c0,0,0,0-0.1,0c-0.1,0.2-0.2,0.3-0.3,0.4c-0.2,0.3-0.4,0.6-0.6,1
				c-0.2,0.3-0.6,0.4-0.9,0.2c-0.1-0.1-0.2-0.3-0.2-0.4C17.4,18.4,17.3,18,17.2,17.6z"/>
			<path class="st15" d="M17.2,17.6c0.1,0.4,0.2,0.8,0.3,1.2c0,0.2,0.1,0.3,0.2,0.4c0.3,0.2,0.6,0.2,0.9-0.2c0.2-0.3,0.4-0.6,0.6-1
				c0.1-0.1,0.2-0.3,0.3-0.4c0,0,0,0,0.1,0c0.2,0.3,0.6,0.4,1,0.4c0.3,0,0.6,0,0.9,0c0.5,0,0.8-0.4,0.6-0.8
				c-0.1-0.2-0.3-0.3-0.5-0.3c-0.3,0-0.7,0-1,0c-0.1,0-0.2,0-0.2-0.1c-0.2-0.1-0.3-0.3-0.5-0.4c-0.3-0.3-0.7-0.2-0.9,0.1
				c-0.2,0.3-0.3,0.5-0.5,0.8c-0.1-0.4-0.2-0.8-0.3-1.2c-0.1-0.4-0.2-0.7-0.3-1.1c-0.1-0.3-0.3-0.5-0.6-0.5c-0.3,0-0.5,0.2-0.6,0.5
				c-0.3,1.1-0.6,2.3-0.9,3.4c0,0.1,0,0.1-0.1,0.2c0-0.1-0.1-0.1-0.1-0.2c-0.5-1.6-1.1-3.2-1.6-4.9c-0.1-0.4-0.6-0.6-0.9-0.3
				c-0.2,0.1-0.2,0.3-0.2,0.5c-0.1,1.1-0.1,2.2-0.2,3.2c0,0.1,0,0.1,0,0.2c-0.1,0-0.1,0-0.2,0c-0.6,0-1.2,0-1.8,0
				c-0.1,0-0.2,0-0.2-0.1c-0.3-0.5-0.5-1-0.6-1.5C9.7,14.8,9.7,14,10,13.2c0.3-0.9,0.9-1.5,1.8-1.9c0.8-0.4,1.7-0.5,2.6-0.4
				c0.9,0.1,1.6,0.4,2.3,1c0.2,0.2,0.4,0.3,0.6,0.5c0.2-0.2,0.3-0.3,0.5-0.5c1.1-0.9,2.2-1.2,3.6-1c0.7,0.1,1.4,0.3,2,0.8
				c0.7,0.5,1.1,1.2,1.3,2c0.1,0.6,0.1,1.2,0.1,1.8c-0.1,1.1-0.7,2-1.3,2.8c-1,1.3-2.1,2.4-3.2,3.5c-0.7,0.7-1.3,1.3-2,2
				c-0.1,0.1-0.2,0.1-0.2,0.2c-0.4,0.3-0.7,0.3-1.1,0c-0.1-0.1-0.2-0.1-0.3-0.2c-1.1-1.1-2.2-2.1-3.3-3.2c-0.6-0.6-1.2-1.3-1.8-1.9
				c0,0,0,0,0,0c0,0,0.1,0,0.1,0c0.5,0,1,0,1.6,0c0.4,0,0.7-0.2,0.7-0.6c0-0.2,0-0.3,0-0.5c0-0.1,0-0.3,0.1-0.4c0,0.1,0,0.1,0.1,0.2
				c0.4,1.3,0.8,2.5,1.3,3.8c0.1,0.4,0.4,0.6,0.7,0.5c0.2-0.1,0.4-0.2,0.4-0.5c0.2-0.7,0.4-1.4,0.5-2.1C17,18.4,17.1,18,17.2,17.6
				C17.2,17.6,17.2,17.6,17.2,17.6z"/>
		</g>
	</g>
</g>
<g id="Layer_3" class="st0">
</g>
<g id="world" class="st0">
	<path class="st3" d="M18.2,9.2c2.8,0,5.3,1,7.1,2.8C27,13.9,28,16.3,28,19c0,5.4-4.4,9.8-9.8,9.8c-5.4,0-9.8-4.4-9.8-9.8
		C8.5,13.6,12.9,9.2,18.2,9.2 M18.2,7.6C11.9,7.6,6.8,12.7,6.8,19c0,6.3,5.1,11.4,11.4,11.4c6.3,0,11.4-5.1,11.4-11.4
		C29.6,12.7,25,7.6,18.2,7.6L18.2,7.6z"/>
	<path class="st3" d="M28.2,19.8c-0.6,0-0.9-0.5-0.9-0.5l-0.8-0.9h1.4c0,0,0.2,0.1,0.4,0.2c0.5-0.7-1.3-5.6-1.8-5.3
		c0.5-0.3,0.5,1.4,0.5,1.4l-1.1-0.1c0,0-0.4-0.8-0.9-0.5c-0.5,0.3-0.1,0.4-0.9,0.5c-0.8,0.1-1.2-1.1-1.7-0.7
		c-0.5,0.4-0.8-0.1-0.9,0.5c-0.1,0.5,0,0.7,0,0.7l-1-0.1c-0.7,0.4-0.3,2.4-0.3,2.4s1.2,0.4,1.8,0c0.7-0.4,1.1-1.5,1.1-1.5l0.8,1.5
		c0.5,0.3,0.6-0.7,0.6-0.7c-0.6-0.9,0.4-1.2,0.4-1.2l1.2,0.5l0.8,0.9l-0.1,0.7l-1.5,0.9c0,0-0.3,1.7-2.3,0.3c0,0-3.1-0.5-3.1,0.4
		c0,0.9-0.2,0.3-0.1,1.5c0,0-0.6,2.8,0.9,2.7c1.5-0.1,0.9-0.1,2.3-0.5c1.4-0.7,1.4,0.7,1.4,0.7l-0.1,1.4L24,25.7c0,0-0.3,0.5,0.3,1
		C24.3,26.8,27.8,24,28.2,19.8z M23.1,10.2c-0.1,0.4-0.1,0.9-0.1,0.9l-0.4,0.9c-0.1,0.7,0.7,0.7,0.7,0.7s1.1,0.2,1.5-1.5
		C24.1,10.6,23.3,10.1,23.1,10.2z"/>
	<path class="st3" d="M20.6,12.2c0,0-0.4,0.9-0.1,1.1c0.3,0.2,1.3,0.5,0.9,0.1c-0.4-0.4-0.3-0.5-0.3-0.8c0.1-0.3,0.3-0.9,0.1-0.8
		C20.9,11.9,20.7,12,20.6,12.2z"/>
	<path class="st3" d="M19.6,12.8c0,0-0.5,0.2-0.4,0.4c0.2,0.3,0.7,0.6,0.7,0.4C20,13.3,20.3,12.9,19.6,12.8z"/>
	<path class="st3" d="M18.9,9.3c-0.3,0.5-0.8,0.3-0.8,0.8c-0.1,0.5-0.9,1.2-0.8,1.4c0.1,0.2,0,1.8-0.7,1c-0.7-0.8-1.4-1.7-1.4-2.2
		c0-0.1,0-0.3,0-0.4C16.3,8.9,18.8,9.1,18.9,9.3z"/>
	<path class="st3" d="M12,19.2c0.3-0.2,1.2-0.3,1.3,0.1c0.1,0.4,1.1,0.7,1.4,0.8c0.4,0.1,1.1,0.2,1.5,0.6c0.4,0.4-0.3,1.2-0.4,1.4
		c-0.1,0.3-0.4,0.9-0.6,1.3c-0.2,0.4-0.3,0.6-0.6,0.8c-0.3,0.2-0.4,0.6-0.4,0.6l-0.1,0.9c0,0,0.3,0.6,0.4,0.8
		c0.2,0.3-0.3,1.5-0.3,1.5c-0.4-0.1-0.7-0.2-0.9-0.6c-0.2-0.4-0.4-0.3-0.3-0.8c0.1-0.5-0.7-1-0.9-1.3c-0.2-0.3-0.4-0.6-0.4-0.9
		c0-0.3-0.6-0.6-0.6-0.6s-1-0.5-1.2-0.7C10,22.9,9.8,22,9.8,21.7c-0.1-0.4,0.2-1.3,0.2-1.3s0.4-0.3,0.2-0.6
		c-0.3-0.3-0.3-0.9-0.3-0.9l-0.5-0.5c0,0-0.4-0.5-0.4-0.8c-0.1-0.3,0-0.4,0.1-0.7C9,16.7,8.7,16.3,8.7,16c1.9-4.7,5.2-5.9,5.2-5.9
		l0.3,1.2c0,0-0.6,0.2-0.9,0.1c-0.4,0.1-0.4,0.4,1.2,0.6c1.2,0.1,0.8,1,1.3,1.2c0.5,0.2-0.4,0.9-0.6,1.3c-0.2,0.4-0.5-0.5-0.5-0.5
		s0.3-0.4-0.2-0.5C14,13.4,13.9,14,14.2,14c0.3-0.1,0.3,0.3,0.3,0.6c-0.1,0.3-0.1,0.6-0.3,1.1c-0.3,0.6-0.9,0.4-0.9,0.4
		s0.2,0.3,0.3,0.6c0.2,0.3-0.1,1-0.1,1.2c0,0.2-0.9-0.2-1-0.7c-0.1-0.5-0.4-0.4-0.6-0.3c-0.2,0.1-0.9,0.2-1-0.1
		c-1.2,0.8-0.3,2.5-0.1,2.5C10.8,19.3,11.4,19.6,12,19.2z"/>
</g>
<g id="eye_stuff" class="st0">
	<g class="st3">
		<path class="st16" d="M31.4,16.8c-0.1-0.1-1.3-1.7-3.5-3.3c-2.9-2.1-6.1-3.3-9.2-3.3c-3.1,0-6.2,1.1-9.2,3.3
			c-2.2,1.6-3.4,3.2-3.5,3.3l-0.5,0.6L6.1,18c0.1,0.1,1.3,1.7,3.5,3.3c2.9,2.1,6.1,3.3,9.2,3.3c3.1,0,6.2-1.1,9.2-3.3
			c2.2-1.6,3.4-3.2,3.5-3.3l0.5-0.6L31.4,16.8z M18.8,22.4c-2.7,0-5-2.2-5-5c0-0.4,0.1-0.8,0.2-1.2L12.8,16
			c-0.1,0.5-0.2,0.9-0.2,1.4c0,1.8,0.8,3.4,2,4.5c-1.6-0.6-2.9-1.4-3.9-2.1c-1.2-0.9-2.2-1.8-2.7-2.4c0.5-0.6,1.5-1.5,2.7-2.4
			c1-0.7,2.3-1.5,3.9-2.1l0.8,0.9c0.9-0.8,2.1-1.3,3.4-1.3c2.7,0,5,2.2,5,5C23.8,20.2,21.5,22.4,18.8,22.4z M26.8,19.8
			c-1,0.7-2.3,1.5-3.9,2.1c1.2-1.1,2-2.7,2-4.5c0-1.8-0.8-3.4-2-4.5c1.6,0.6,2.9,1.4,3.9,2.1c1.2,0.9,2.2,1.8,2.7,2.4
			C29,18,28,18.9,26.8,19.8z"/>
		<path class="st16" d="M15.6,16.5c-0.1,0.3-0.1,0.6-0.1,1c0,1.8,1.5,3.3,3.3,3.3c1.8,0,3.3-1.5,3.3-3.3c0-1.8-1.5-3.3-3.3-3.3
			c-0.9,0-1.7,0.4-2.3,0.9l1.6,1.8L15.6,16.5z"/>
	</g>
</g>
<g id="eye2" class="st0">
	<g id="fQRQln_1_" class="st3">
		<g>
			<path d="M31,30.3c0,0.6-0.2,0.8-0.8,0.8c-2.5,0-5,0-7.5,0c-0.5,0-0.9-0.1-1,0.7c-0.1,1-1.2,1.7-2.2,1.7c-1,0-2-0.7-2.2-1.7
				C17,31.1,16.7,31,16.1,31c-2.5,0-4.9,0-7.4,0c-0.7,0-1-0.1-1-0.9c0-6.7,0-13.4,0-20.1c0-0.7,0.2-0.9,0.9-0.9c0.7,0,1,0.2,1,1
				c0,6.1,0,12.1,0,18.2c0,0.8,0.2,1,1,1c5.9,0,11.7,0,17.6,0c0.8,0,1.1-0.2,1.1-1 M20.5,31.3c0-0.1,0-0.2-0.2-0.2
				c-0.6,0-1.2,0-1.8,0c-0.2,0-0.2,0.1-0.1,0.3c0.1,0.5,0.5,0.8,1,0.8C19.9,32.3,20.3,31.9,20.5,31.3z"/>
			<path d="M19.3,7.8c-3.9,0-7.8,0-11.6,0c-0.8,0-1-0.2-0.9-1c0.1-0.7,0-1.5,0-2.2C6.7,4.1,7,4,7.5,4c7.9,0,15.8,0,23.8,0
				c0.5,0,0.7,0.2,0.7,0.7c0,1,0.3,2.3-0.2,2.9c-0.5,0.6-1.8,0.2-2.8,0.2C25.7,7.8,22.5,7.8,19.3,7.8z"/>
			<path d="M19.4,10.5c0.6,0,1.2,0,1.8,0c0.5,0,0.8,0.1,0.7,0.6c-0.1,0.4,0.2,0.8-0.2,1c-0.3,0.2-0.7,0-1-0.3
				c-0.3-0.3-0.9-0.1-1.4-0.1c-0.3,0-0.3,0.4-0.2,0.6c0,0.4,0.3,0.4,0.6,0.4c0.7-0.1,0.8,0.2,0.8,0.8c-0.1,0.6-0.5,0.4-0.8,0.4
				c-0.3,0-0.5,0-0.5,0.4c0,0.4,0.2,0.6,0.6,0.5c0.4-0.1,1,0.3,1.3-0.4c0-0.1,0.6-0.1,0.7,0c0.4,0.3,0.1,0.8,0.2,1.2
				c0,0.3-0.2,0.4-0.5,0.4c-1.4,0-2.8,0-4.1,0c-0.2,0-0.4,0-0.4-0.3c0-0.3-0.1-0.6,0.1-0.9c0.7-0.7,0.7-2.4,0-3.2
				c-0.3-0.3-0.2-0.6-0.1-1c0-0.3,0.4-0.2,0.6-0.2C18.1,10.5,18.7,10.5,19.4,10.5C19.4,10.5,19.4,10.5,19.4,10.5z"/>
			<path d="M21.7,18.6c0.7,0.1,1.2,0.4,1.2,1.2c0,0.7-0.4,1.2-1.1,1.2c-0.7,0-1.1-0.4-1.2-1.1C20.6,19.1,21,18.7,21.7,18.6z"/>
			<path d="M18.1,19.7c0,0.7-0.4,1.2-1.1,1.2c-0.7,0-1.1-0.4-1.2-1.1c0-0.7,0.4-1.2,1.1-1.2C17.6,18.6,18.1,19,18.1,19.7z"/>
			<path d="M15.7,24.7c-0.1,0.6-0.4,1-0.9,1c-0.6,0-1-0.3-1-0.9c0-0.6,0.4-1,0.9-1C15.4,23.8,15.6,24.2,15.7,24.7z"/>
			<path d="M18.4,25c0-0.8,0.3-1.1,0.9-1.1c0.6,0,0.9,0.3,0.9,1c0,0.6-0.4,0.9-0.9,1C18.8,25.7,18.4,25.4,18.4,25z"/>
			<path d="M23.8,23.8c0.7,0.1,1,0.4,1.1,0.9c0,0.6-0.3,1-0.9,1c-0.6,0-1-0.3-1-0.9C23,24.3,23.4,24,23.8,23.8z"/>
		</g>
	</g>
	<path class="st3" d="M28.2,29.3c0.8,0,1-0.2,1-1c0-6.1,0-12.1,0-18.2c0-0.8,0.2-1,1-1c0.7,0,0.9,0.2,0.9,0.9c0,6.7,0,13.6,0,20.3"
		/>
</g>
<g id="X">
</g>
</svg>
