<svg id="Layer_37" data-name="Layer 37" xmlns="http://www.w3.org/2000/svg" viewBox="0 0 35.25 35.25"><defs><style>.cls-1{fill:#52535a;}</style></defs><title>icon-myimages</title><path class="cls-1" d="M32.75,0.37H3.25A2.88,2.88,0,0,0,.37,3.25V32.75a2.88,2.88,0,0,0,2.88,2.88h8.11c-0.83-1.52-1.54-2.28-2.51-4.11L8.57,31.3A1.58,1.58,0,0,1,8.26,31l-0.4-.55a0.55,0.55,0,0,1,.21-0.76l1.67-1.25a0.6,0.6,0,0,1,.81.07L10.95,29a1.14,1.14,0,0,1-.16.92c-0.15,1.63,2.15,4.37,3.55,5l0.11,0.08,0.18-1c0.52-1.29-.16-6.23-1.34-8.72L13.09,25a2.19,2.19,0,0,1-.17-0.54l-0.15-.85a0.66,0.66,0,0,1,.6-0.74l2-.28a0.72,0.72,0,0,1,.82.54L16.31,24a2,2,0,0,1,0,.56l0,0.46a14.57,14.57,0,0,0,1.17,7.28,17.67,17.67,0,0,0-.22-7.64l-0.12-.48A2.48,2.48,0,0,1,17,23.51v-1a0.72,0.72,0,0,1,.72-0.72h2a0.72,0.72,0,0,1,.72.72v1a2.51,2.51,0,0,1-.08.61l-0.12.49a17.67,17.67,0,0,0-.12,8.13,14,14,0,0,0,.82-7l-0.06-.43a2.17,2.17,0,0,1,0-.54L21,24a0.63,0.63,0,0,1,.76-0.51l1.88,0.31a0.69,0.69,0,0,1,.6.73l-0.11.83a2,2,0,0,1-.14.52l-0.18.4a14,14,0,0,0-1,7.17,13,13,0,0,0,1.48-5.94v-0.4a1.85,1.85,0,0,1,.07-0.49l0.21-.74a0.59,0.59,0,0,1,.76-0.36L27,26a0.63,0.63,0,0,1,.45.75l-0.21.74a1.79,1.79,0,0,1-.2.45l-0.21.35a12.94,12.94,0,0,0-1.9,6.82v0.23a2,2,0,0,1,0,.29h7.84a2.88,2.88,0,0,0,2.88-2.88V3.25A2.88,2.88,0,0,0,32.75.37ZM6.8,20.31c-0.21-.73-0.39-1.19-0.53-1.8s0.21-1.55.75-1a1.19,1.19,0,0,1,.5.82,1.31,1.31,0,0,0,0,.73,6.81,6.81,0,0,0,.71,1.72,0.82,0.82,0,0,1,.41.52,6,6,0,0,1-.43.82,0.89,0.89,0,0,1-.48.66,2.61,2.61,0,0,1-1.11-.5A5.32,5.32,0,0,0,6.8,20.31ZM9.8,28L8.31,29.14c-0.36.11-.62,0.12-0.67-0.07l-0.15-.56a0.71,0.71,0,0,1,0-.34l0-.13c0.35-1.59.49-2.73-.41-4L7,23.88a0.83,0.83,0,0,1-.13-0.28L6.7,23.15a0.26,0.26,0,0,1,.22-0.4,2.12,2.12,0,0,0,1,.37,7.34,7.34,0,0,0,.66-1.06c0.24-.18.29,0.09,0.34,0.28L9,22.59a0.86,0.86,0,0,1,0,.31l0,0.26c-0.16,1.53.66,2.52,1.31,3.73L10.4,27a0.67,0.67,0,0,1,.16.29l0.15,0.55C10.76,28,10.16,27.92,9.8,28ZM10.67,7.13a0.59,0.59,0,0,1,0-.24l0-.09A3.89,3.89,0,0,0,11,6.09a2.74,2.74,0,0,0-.28-0.84,0.58,0.58,0,0,1,0-.51,1.25,1.25,0,0,1,.42-0.2h0.08a1.34,1.34,0,0,1,.47.07,0.61,0.61,0,0,1,.2.47,2.7,2.7,0,0,0,0,.89,4.25,4.25,0,0,0,.53.58l0.06,0.09a0.63,0.63,0,0,1,.09.22l0,0.23a0.48,0.48,0,0,1-.32.48l-1.15.17a0.52,0.52,0,0,1-.48-0.37Zm0.66,6-0.06-.32a0.81,0.81,0,0,1,0-.33l0-.12c0.35-1.48.44-1.71-.28-3.11L10.92,9a1.08,1.08,0,0,1-.1-0.3l0.13-.38A0.33,0.33,0,0,1,11.27,8l1-.15a0.36,0.36,0,0,1,.43.25L13,8.4a1,1,0,0,1,0,.32L13,9a4.08,4.08,0,0,0,.61,2.74l0.27,0.41a0.83,0.83,0,0,1,.12.31L14,12.74a0.66,0.66,0,0,1-.45.66L12,13.63A0.72,0.72,0,0,1,11.34,13.13Zm4,9.22-2,.29a0.64,0.64,0,0,1-.77-0.33l-0.13-.72a1,1,0,0,1,0-.41l0-.16a7.78,7.78,0,0,0-.56-5.45l-0.14-.28a1.27,1.27,0,0,1-.12-0.37l-0.1-.58A0.49,0.49,0,0,1,12,13.83l1.51-.22a0.53,0.53,0,0,1,.62.36l0.1,0.58a1.26,1.26,0,0,1,0,.38l0,0.31a7.87,7.87,0,0,0,1.34,5.32l0.1,0.16a1.06,1.06,0,0,1,.15.39L16,21.82A0.59,0.59,0,0,1,15.33,22.35ZM17.76,4.29a0.73,0.73,0,0,1,0-.26l0-.1a4.44,4.44,0,0,0,.43-0.73,3.24,3.24,0,0,0-.13-1,0.7,0.7,0,0,1,.12-0.55,1.21,1.21,0,0,1,.45-0.15h0.08a1.22,1.22,0,0,1,.45.15,0.7,0.7,0,0,1,.12.55,3.34,3.34,0,0,0-.14,1,4.49,4.49,0,0,0,.42.71l0,0.11a0.73,0.73,0,0,1,0,.26V4.55a0.53,0.53,0,0,1-.4.48H18.17a0.53,0.53,0,0,1-.4-0.48V4.29Zm-0.37,6.28a1,1,0,0,1,.07-0.35l0.05-.13c0.6-1.56.73-1.8,0.27-3.44L17.7,6.37a1.29,1.29,0,0,1,0-.35l0.19-.39a0.36,0.36,0,0,1,.38-0.34h1a0.36,0.36,0,0,1,.38.34L19.84,6a1.2,1.2,0,0,1,0,.35l-0.08.28c-0.47,1.64-.34,1.87.26,3.43L20,10.23a1,1,0,0,1,.07.35v0.35a0.73,0.73,0,0,1-.56.65h-1.6a0.73,0.73,0,0,1-.56-0.65V10.57h0Zm3.07,10.58a0.63,0.63,0,0,1-.7.48h-2a0.62,0.62,0,0,1-.7-0.48v-0.8a1.23,1.23,0,0,1,.08-0.45l0.07-.17a9.45,9.45,0,0,0,.4-6l-0.09-.33a1.52,1.52,0,0,1-.06-0.42V12.29A0.53,0.53,0,0,1,18,11.8h1.53a0.52,0.52,0,0,1,.55.49v0.65a1.54,1.54,0,0,1-.06.42l-0.1.34a9.45,9.45,0,0,0,.39,6l0.07,0.19a1.22,1.22,0,0,1,.09.45v0.79h0ZM23.77,8.25A0.54,0.54,0,0,1,23.85,8l0-.08a3.6,3.6,0,0,0,.49-0.56,2.57,2.57,0,0,0,0-.85,0.55,0.55,0,0,1,.18-0.45A1.18,1.18,0,0,1,25,6h0.08a1.23,1.23,0,0,1,.41.2,0.58,0.58,0,0,1,0,.49,2.63,2.63,0,0,0-.24.82,4.09,4.09,0,0,0,.32.68l0,0.1a0.55,0.55,0,0,1,0,.23l0,0.22a0.46,0.46,0,0,1-.44.35L24.07,9a0.5,0.5,0,0,1-.33-0.47Zm-1.06,5.38a0.75,0.75,0,0,1,.11-0.29l0.06-.11c0.75-1.25.9-1.43,0.65-2.93l0-.25a1,1,0,0,1,0-.31l0.23-.31a0.32,0.32,0,0,1,.4-0.23l1,0.16a0.35,0.35,0,0,1,.32.35l0.14,0.37a1,1,0,0,1-.09.29l-0.11.23a3.88,3.88,0,0,0-.24,2.64l0.13,0.5a0.86,0.86,0,0,1,0,.31l0,0.3a0.63,0.63,0,0,1-.6.48l-1.51-.25a0.69,0.69,0,0,1-.45-0.65ZM24.41,22l0,0.17a1,1,0,0,1,0,.4l-0.09.68a0.58,0.58,0,0,1-.72.3l-1.91-.32a0.62,0.62,0,0,1-.61-0.53l0.09-.7a1,1,0,0,1,.13-0.37l0.08-.13a7.45,7.45,0,0,0,1.07-5.14l-0.05-.3a1.25,1.25,0,0,1,0-.37l0.07-.56a0.47,0.47,0,0,1,.58-0.34L24.58,15a0.5,0.5,0,0,1,.46.51L25,16.12a1.18,1.18,0,0,1-.1.35l-0.13.27A7.58,7.58,0,0,0,24.41,22Zm4.91-3.31-0.14.5a1.14,1.14,0,0,1-.14.31l-0.15.23a7,7,0,0,0-1,4.75l0,0.17a0.9,0.9,0,0,1,0,.36l-0.17.61a0.52,0.52,0,0,1-.7.18l-1.7-.54a0.57,0.57,0,0,1-.49-0.56L25,24.09a0.83,0.83,0,0,1,.17-0.32l0.09-.11a6.89,6.89,0,0,0,1.66-4.55V18.83a1.16,1.16,0,0,1,0-.34l0.14-.5a0.43,0.43,0,0,1,.57-0.23L29,18.16A0.47,0.47,0,0,1,29.33,18.69Zm1-4.67h0a4.26,4.26,0,0,0-.67,2.81l0,0.23a0.73,0.73,0,0,1,0,.29l-0.08.27A0.58,0.58,0,0,1,29,18l-1.34-.43a0.63,0.63,0,0,1-.33-0.65l0.08-.28a0.73,0.73,0,0,1,.13-0.26l0.07-.09a2.85,2.85,0,0,0,1-2.59V13.46a0.9,0.9,0,0,1,0-.28l0.25-.25a0.3,0.3,0,0,1,.39-0.16L30.16,13a0.32,0.32,0,0,1,.25.36l0.08,0.35A1,1,0,0,1,30.37,14Zm0.5-3.33a2.43,2.43,0,0,0-.33.71,3.73,3.73,0,0,0,.2.67v0.1a0.56,0.56,0,0,1,0,.21l-0.06.2a0.42,0.42,0,0,1-.44.26l-1-.31A0.46,0.46,0,0,1,29,12l0.06-.2a0.53,0.53,0,0,1,.1-0.19l0.05-.06a3.35,3.35,0,0,0,.52-0.45,2.39,2.39,0,0,0,.1-0.78A0.51,0.51,0,0,1,30.07,10a1.1,1.1,0,0,1,.41,0l0.07,0a1.2,1.2,0,0,1,.34.24A0.53,0.53,0,0,1,30.87,10.69Z" transform="translate(-0.37 -0.37)"/></svg>