<svg id="icon-community" xmlns="http://www.w3.org/2000/svg" viewBox="0 0 35.1 35.1"><defs><style>.cls-1{fill:#52535a;}</style></defs><title>icon-community</title><path class="cls-1" d="M11.42,6.7v-3c0-2.43.79-3.19,3.18-3.2s4.91,0,7.37,0c1.93,0,2.78.88,2.8,2.82V10c0,1,0,2-.07,3.08a3.3,3.3,0,0,1-2.21,3.38,3.41,3.41,0,0,1-4-1.34,15.14,15.14,0,0,1-1.18-2,4.61,4.61,0,0,0-3-2.53,8.79,8.79,0,0,0-2.14-.08,0.57,0.57,0,0,1-.7-0.7V6.7Z" transform="translate(-0.55 -0.5)"/><path class="cls-1" d="M24.78,29.4v3c0,2.43-.79,3.19-3.18,3.2s-4.91,0-7.37,0c-1.93,0-2.78-.88-2.8-2.82v-6.7c0-1,0-2,.07-3.08a3.3,3.3,0,0,1,2.21-3.38,3.41,3.41,0,0,1,4,1.34,15.14,15.14,0,0,1,1.18,2,4.61,4.61,0,0,0,3,2.53,8.79,8.79,0,0,0,2.14.08,0.57,0.57,0,0,1,.7.7V29.4Z" transform="translate(-0.55 -0.5)"/><path class="cls-1" d="M6.75,24.73h-3c-2.43,0-3.19-.79-3.2-3.18s0-4.91,0-7.37c0-1.93.88-2.78,2.82-2.8h6.7c1,0,2,0,3.08.07a3.3,3.3,0,0,1,3.38,2.21,3.41,3.41,0,0,1-1.34,4,15.14,15.14,0,0,1-2,1.18,4.61,4.61,0,0,0-2.53,3A8.79,8.79,0,0,0,10.61,24a0.57,0.57,0,0,1-.7.7H6.75Z" transform="translate(-0.55 -0.5)"/><path class="cls-1" d="M29.45,11.38h3c2.43,0,3.19.79,3.2,3.18s0,4.91,0,7.37c0,1.93-.88,2.78-2.82,2.8h-6.7c-1,0-2,0-3.08-.07a3.3,3.3,0,0,1-3.38-2.21,3.41,3.41,0,0,1,1.34-4,15.14,15.14,0,0,1,2-1.18,4.61,4.61,0,0,0,2.53-3,8.79,8.79,0,0,0,.08-2.14,0.57,0.57,0,0,1,.7-0.7h3.16Z" transform="translate(-0.55 -0.5)"/></svg>